<?xml version="1.0" encoding="utf-8"?>
<!-- Generator: Adobe Illustrator 26.0.0, SVG Export Plug-In . SVG Version: 6.00 Build 0)  -->
<svg version="1.1" id="Capa_1" xmlns="http://www.w3.org/2000/svg" xmlns:xlink="http://www.w3.org/1999/xlink" x="0px" y="0px"
	 viewBox="0 0 750 500" style="enable-background:new 0 0 750 500;" xml:space="preserve">
<style type="text/css">
	.st0{opacity:8.000000e-02;fill:#A0E4FF;enable-background:new    ;}
	.st1{fill:#BFCE67;}
	.st2{fill:#CCCCCB;}
	.st3{fill:#AFAFAF;}
	.st4{fill:#8E3900;}
	.st5{fill:#3F3F3F;}
	.st6{fill:#777777;}
	.st7{fill:#778CC0;}
	.st8{fill:#F8D837;}
	.st9{fill:#5B5B5B;}
	.st10{fill:#6B6B6B;}
	.st11{fill:#DFE9F4;}
	.st12{fill:#939393;}
	.st13{fill:#D1E0ED;}
	.st14{fill:#233862;}
	.st15{fill:#A53D38;}
	.st16{fill:#FFB27D;}
	.st17{fill:#EF9E67;}
	.st18{fill:#FFA412;}
	.st19{fill:#BC3F3F;}
	.st20{fill:#FFB93E;}
	.st21{fill:#E58638;}
	.st22{fill:#A53232;}
	.st23{fill:#466AA5;}
	.st24{fill:#D2E4FF;}
	.st25{fill:#EE9849;}
	.st26{fill:#578E9B;}
	.st27{fill:#74ACBE;}
	.st28{fill:#2B478B;}
	.st29{fill:#F1A34F;}
	.st30{fill:#D86713;}
	.st31{fill:#CB7D45;}
	.st32{fill:#D9935C;}
	.st33{fill:#ED7D2B;}
	.st34{fill:#F99746;}
	.st35{fill:#B64C41;}
	.st36{fill:#0F2949;}
	.st37{fill:#163560;}
	.st38{fill:#ED985F;}
	.st39{fill:#2C3A64;}
	.st40{fill:#BBD4FF;}
	.st41{opacity:0.32;fill:#2D3F70;enable-background:new    ;}
	.st42{opacity:0.14;fill:#313A40;enable-background:new    ;}
	.st43{opacity:0.19;fill:#2D3F70;enable-background:new    ;}
	.st44{opacity:0.38;fill:#313A40;enable-background:new    ;}
</style>
<g id="BACKGROUND">
</g>
<g>
	<path class="st0" d="M20.2,435.7c-0.7-12.4-2.4-24.7-4.8-36.8c-1-5-1.5-10.6-1.1-16.5c2.2-34.2,32.1-58,52.6-74.7
		c32.7-26.6,93.3-35.9,77.5-92.1c-18.7-66.3,69.6-88,157.6-67.3c68.9,16.2,132.3,73.7,180.1,54.4c92.5-37.4,136.9-20.7,162.5-9.9
		c0.8,0.3,1.6,0.7,2.4,1c3.8,1.6,7.5,3.5,11.4,5.6c0.8,0.4,1.6,0.9,2.4,1.3c2.7,1.5,5.3,3.1,8,4.8c1.2,0.8,2.5,1.6,3.8,2.5
		c0.1,0.1,0.2,0.1,0.3,0.2c1.7,1.2,3.4,2.3,5.2,3.6c2,1.5,4,3,6,4.6c3.6,2.8,7.2,5.9,10.8,9.1c1.4,1.2,2.7,2.5,4.1,3.8
		c1.6,1.5,3.2,3,4.7,4.6c1.4,1.4,2.7,2.9,4,4.3c0.5,0.5,0.9,1,1.4,1.5c1.1,1.2,2.1,2.5,3.2,3.8c1,1.2,1.9,2.3,2.8,3.5
		c0.3,0.5,0.7,0.9,1,1.3c0.5,0.7,1.1,1.4,1.6,2.2c1.1,1.6,2.2,3.1,3.2,4.6c1.4,2.1,2.6,4.1,3.8,6.2c0.2,0.3,0.3,0.6,0.5,0.9
		c0.1,0.3,0.3,0.5,0.4,0.8c0.4,0.7,0.8,1.4,1.2,2.1c2.7,5,4.9,10,6.8,15.1c0.1,0.3,0.2,0.6,0.3,0.9c0.2,0.5,0.4,1,0.5,1.5
		c0.3,0.9,0.7,1.9,1,2.8s0.6,1.8,0.8,2.7c0,0.1,0.1,0.3,0.1,0.4c0.2,0.8,0.4,1.5,0.7,2.3c0.4,1.4,0.7,2.7,1,4.1
		c0.5,2.1,1,4.3,1.4,6.4c0,0.2,0.1,0.4,0.1,0.6c0.4,2.1,0.7,4.1,1,6.1c1,7.3,1.3,14.5,1.2,21.4c0,1.4-0.1,2.9-0.1,4.3
		c-0.1,1.4-0.2,2.8-0.3,4.2c-0.2,3-0.5,5.9-0.9,8.8c-0.5,3.7-1.1,7.3-1.8,10.8c-0.2,1-0.4,1.9-0.6,2.9c-0.1,0.4-0.2,0.8-0.3,1.1
		l-0.1,0.2c-0.1,0.5-0.2,1-0.3,1.5s-0.2,1-0.3,1.4c-0.4,1.8-0.9,3.5-1.3,5.1c0,0.1-0.1,0.3-0.1,0.4c-0.1,0.2-0.1,0.3-0.1,0.5
		c-0.5,1.9-1,3.7-1.6,5.5c-0.7,2.4-1.5,4.7-2.3,6.9c-0.2,0.6-0.5,1.3-0.7,1.9c-0.3,0.9-0.7,1.9-1,2.8l0,0c-0.3,0.7-0.6,1.4-0.8,2.1
		c-0.4,1.1-0.9,2.2-1.3,3.3c-0.6,1.6-1.3,3.1-1.9,4.5c-0.1,0.3-0.3,0.6-0.4,1c-0.3,0.6-0.6,1.3-0.8,1.9c-0.6,1.2-1.1,2.4-1.7,3.5
		c-0.5,1.1-1,2.1-1.5,3.1c-1.8,3.6-3.3,6.5-4,7.8c-0.2,0.5-0.4,0.7-0.4,0.7s-0.3,0.5-0.8,1.3c0,0-36.4,63.1-120.3,98.9
		c-95.4,40.7-167.7-21.9-370.2-16.2c-89.7,2.5-162.7,17.3-193.2-25.6C24.1,462.2,20.9,448.5,20.2,435.7z"/>
	<path class="st1" d="M51.4,356.5c0,0,5.9-16.8,25.1-18c19.2-1.1,29.9-16.1,49.8-12.6s21.4,18.2,29.7,22.2c8.4,4,50.5-5.3,66.5-0.8
		c16,4.4,23.5-6.6,38.3-11.3c14.9-4.7,24.6,1.8,35.3,9.2c10.7,7.4,25.7-0.8,25,10.9L51.4,356.5z"/>
	<g>
		<path class="st2" d="M158.8,190.1v4.7l-1,140.7c0,0.3-0.1,0.6-0.3,0.6h-0.1c-0.3,0-0.5-0.5-0.5-1.2L155.5,199l-0.1-9h3.4V190.1z"
			/>
		<path class="st3" d="M158.8,190.1v4.7c-0.9,0.6-2.2,1.9-3.2,4.3l-0.1-9H158.8z"/>
	</g>
	<path class="st1" d="M349.9,355.7h-18.2c-1-0.8,0.7-2.7,2.4-2.8c0.7-0.1,1.7,0.1,2.8,0.3c0.2-3.3,1.7-18.2,7.1-17.6
		c6,0.7,0,6.6-1.7,10.1c-1.3,2.6-2.6,6.3-3.2,8c0.5,0.1,1,0.2,1.5,0.3c0.8-2.5,3.8-10.7,7.6-10.3c4.5,0.6,2.7,3.9-0.5,5.9
		c-2.3,1.4-5.2,3.5-6.5,4.5c1.1,0.2,2.3,0.3,3.5,0.3C347.8,354.3,349.3,355.2,349.9,355.7z"/>
	<path class="st1" d="M33.7,354.6c-1-1.5-4-5.6-7.9-5c-4.3,0.6,4.8,3.4,7.5,5c-0.6,0-1.1,0-1.5-0.2c-1.9-0.7-5,0.6-6,1.1h17.6
		c-0.1-0.4-0.4-1.1-1.3-1.6c-0.3-0.2-0.9-0.2-1.6-0.1c1-1.2,1.8-5.2-1.1-4.2c-2.1,0.7-2.1,3.2-1.9,4.6c-0.5,0.1-0.9,0.1-1.4,0.2
		c-0.9-4.5-4-17.6-10.3-18c-6.4-0.4,5.4,13.6,9.3,18.1C34.6,354.5,34.2,354.6,33.7,354.6z"/>
	<g>
		<g>
			<g>
				<path class="st3" d="M290.9,318.9l-0.1,4.6l-0.7,32.3c0,0.2-0.2,0.4-0.4,0.4l0,0c-0.3,0-0.6-0.3-0.6-0.6l-1.2-30.6l-0.2-6.1
					L290.9,318.9L290.9,318.9z"/>
				<path class="st3" d="M290.9,318.9l-0.1,4.6c-0.9,0.3-2,0.8-2.9,1.5l-0.2-6.1H290.9z"/>
			</g>
			<g>
				<path class="st3" d="M143.6,318.9l-0.1,4.6l-0.7,32.3c0,0.2-0.2,0.4-0.4,0.4l0,0c-0.3,0-0.6-0.3-0.6-0.6l-1.2-30.6l-0.2-6.1
					L143.6,318.9L143.6,318.9z"/>
				<path class="st3" d="M143.6,318.9l-0.1,4.6c-0.9,0.3-2,0.8-2.9,1.5l-0.2-6.1H143.6z"/>
			</g>
		</g>
		<path class="st3" d="M298.7,320.4H132.5c-1,0-1.9-0.9-1.9-1.9v-9.6c0-1,0.9-1.9,1.9-1.9h166.2c1,0,1.9,0.9,1.9,1.9v9.6
			C300.6,319.6,299.8,320.4,298.7,320.4z"/>
	</g>
	<g>
		<path class="st4" d="M872.2,304.3c-0.1,0.5-0.2,1-0.3,1.4c-0.4,1.8-0.9,3.5-1.3,5.1c0,0.1-0.1,0.3-0.1,0.4
			c-0.1,0.2-0.1,0.3-0.1,0.5c-0.5,1.9-1,3.7-1.6,5.5c-0.7,2.4-1.5,4.7-2.3,6.9c-0.2,0.6-0.5,1.3-0.7,1.9c-0.3,0.9-0.7,1.9-1,2.8l0,0
			c-0.3,0.7-0.6,1.4-0.8,2.1c-0.4,1.1-0.9,2.2-1.3,3.3c-0.6,1.6-1.3,3.1-1.9,4.5c-0.1,0.3-0.3,0.6-0.4,1c-0.3,0.6-0.6,1.3-0.8,1.9
			h-40.1v-37.4h52.7V304.3z"/>
		<rect x="610.6" y="304.3" class="st4" width="74.4" height="37.3"/>
		<circle class="st5" cx="645.8" cy="334.2" r="22"/>
		<path class="st6" d="M657.3,334.2c0,2.6-0.8,5-2.3,6.9c-2.1,2.8-5.5,4.7-9.3,4.7c-6.4,0-11.6-5.2-11.6-11.6c0-5,3.1-9.2,7.5-10.8
			c1.3-0.5,2.6-0.7,4.1-0.7C652.1,322.6,657.3,327.8,657.3,334.2z"/>
		<path class="st7" d="M875.4,249.1c-0.3-2-0.6-4.1-1-6.1c0-0.2-0.1-0.4-0.1-0.6c-0.4-2.1-0.8-4.3-1.4-6.4l-305.3-56.6
			c-0.5,0-0.9,0-1.4,0c-0.1,0-0.2,0-0.3,0c-0.2,0-0.4,0-0.5,0l0,0c-0.1,0-0.2,0-0.3,0s-0.2,0-0.3,0.1c-0.8,0.1-1.7,0.3-2.5,0.5
			c-0.1,0-0.2,0.1-0.3,0.1h-0.1c-0.2,0.1-0.3,0.1-0.5,0.1c-0.1,0-0.2,0.1-0.3,0.1c-0.2,0.1-0.3,0.1-0.5,0.2
			c-0.2,0.1-0.3,0.1-0.5,0.2c-0.1,0-0.2,0.1-0.3,0.1c-0.2,0.1-0.4,0.1-0.6,0.2c-0.1,0.1-0.3,0.1-0.5,0.2c-0.3,0.1-0.5,0.2-0.7,0.3
			c-0.1,0.1-0.3,0.1-0.5,0.2c-0.1,0.1-0.2,0.1-0.3,0.1c-0.2,0.1-0.4,0.2-0.5,0.3c-0.2,0.1-0.3,0.2-0.5,0.3s-0.3,0.2-0.5,0.3
			c0,0-0.1,0-0.1,0.1c-0.2,0.1-0.3,0.2-0.5,0.3c-0.1,0.1-0.3,0.2-0.4,0.3c-0.1,0.1-0.3,0.2-0.4,0.3c-0.1,0.1-0.2,0.1-0.3,0.2
			c-0.4,0.3-0.7,0.6-1.1,0.9c-0.1,0.1-0.2,0.1-0.2,0.2c-0.1,0.1-0.2,0.2-0.3,0.3s-0.2,0.2-0.3,0.3l-0.6,0.6
			c-0.1,0.1-0.2,0.2-0.3,0.3s-0.3,0.3-0.4,0.4c-0.1,0.1-0.1,0.2-0.2,0.3c-0.1,0.2-0.3,0.4-0.4,0.5c-0.1,0.1-0.1,0.2-0.2,0.3
			c-0.1,0.1-0.1,0.2-0.2,0.3c-0.1,0.2-0.3,0.4-0.4,0.6c-0.1,0.1-0.1,0.2-0.2,0.3c-0.1,0.1-0.1,0.2-0.2,0.3c-0.1,0.1-0.2,0.3-0.3,0.5
			l0,0c0,0.1-0.1,0.1-0.1,0.2c-0.1,0.1-0.1,0.2-0.2,0.3c-0.1,0.1-0.1,0.2-0.1,0.3l0,0c0,0.1-0.1,0.2-0.1,0.3
			c-0.1,0.1-0.2,0.3-0.3,0.5s-0.2,0.4-0.3,0.6c-0.1,0.2-0.2,0.3-0.2,0.5c-0.1,0.1-0.1,0.2-0.1,0.3s-0.1,0.2-0.1,0.3
			c-0.1,0.2-0.1,0.4-0.2,0.6c-0.1,0.2-0.1,0.3-0.2,0.5c0,0.1-0.1,0.2-0.1,0.3s-0.1,0.2-0.1,0.3s0,0.1-0.1,0.2c0,0.1-0.1,0.2-0.1,0.3
			c-0.1,0.1-0.1,0.3-0.1,0.4c0,0.1-0.1,0.2-0.1,0.3s-0.1,0.2-0.1,0.3c-0.3,1.1-0.6,2.2-0.9,3.4c-0.1,0.2-0.1,0.4-0.2,0.6
			c-0.3,1.2-0.7,2.5-1,3.8c-0.1,0.3-0.1,0.5-0.2,0.8c0,0.1-0.1,0.3-0.1,0.4c-0.1,0.4-0.2,0.8-0.3,1.2s-0.2,0.8-0.3,1.2
			c0,0.1,0,0.1-0.1,0.2c0,0.2-0.1,0.4-0.1,0.6c-0.1,0.2-0.1,0.3-0.1,0.5c-0.1,0.4-0.2,0.7-0.3,1.1c-0.1,0.5-0.3,1-0.4,1.4
			c-0.1,0.4-0.2,0.8-0.3,1.2c-0.3,1.2-0.6,2.3-0.9,3.5c-0.1,0.6-0.3,1.2-0.5,1.8c-0.1,0.6-0.3,1.2-0.5,1.8c-0.1,0.6-0.3,1.2-0.5,1.8
			c-0.1,0.5-0.3,1.1-0.4,1.6c-0.4,1.6-0.8,3.1-1.2,4.6c-0.1,0.6-0.3,1.2-0.4,1.7c-0.1,0.2-0.1,0.4-0.1,0.6c-0.1,0.6-0.3,1.2-0.4,1.7
			c0,0.1,0,0.2-0.1,0.3c-0.1,0.5-0.2,0.9-0.3,1.4c-0.1,0.2-0.1,0.4-0.1,0.6c-0.1,0.5-0.2,1-0.3,1.5c-0.1,0.3-0.1,0.6-0.2,0.9
			c-0.1,0.5-0.3,1-0.4,1.5v0.1c-0.1,0.3-0.1,0.6-0.2,0.8c0,0.1,0,0.1,0,0.1c-0.1,0.2-0.1,0.5-0.2,0.7c-0.1,0.3-0.1,0.5-0.2,0.8
			c-0.1,0.5-0.3,1-0.4,1.6c0,0.1-0.1,0.3-0.1,0.4c-0.1,0.6-0.3,1.3-0.4,1.9c0,0.2-0.1,0.5-0.1,0.7c0,0.1,0,0.1,0,0.2
			c-0.1,0.2-0.1,0.4-0.1,0.6c0,0.1,0,0.2-0.1,0.3c-0.1,0.3-0.1,0.6-0.2,0.9l0,0c0,0.2-0.1,0.4-0.1,0.6c-0.1,0.6-0.2,1.2-0.3,1.7
			c-0.6,2.9-1,5.5-1.3,7.6c-1.4,10.4-1.9,22-2.1,33.1c0,4.8,0,9.5,0.1,14c0,2,0.1,4,0.1,5.9c0.2,5.5,0.4,10.5,0.6,14.9
			c0.1,2.6,0.3,4.9,0.4,7c0.4,5.6,5,10,10.7,10h78c0-0.1,0-0.2-0.1-0.3c-0.7-2.3-1-4.7-1-7.3c0-10.6,6-19.8,14.7-24.4
			c3.7-1.9,7.9-3.1,12.3-3.1c4.7-0.1,9.2,1.1,13.1,3.1c8.7,4.5,14.7,13.6,14.8,24c0,2.7-0.3,5.2-1,7.7c0,0.1-0.1,0.2-0.1,0.3H715
			h107h5.7c-0.7-2.4-1.1-4.9-1.1-7.5c0-15.4,12.5-27.9,27.9-27.9c5.9,0,11.4,1.8,15.9,5c0-0.1,0.1-0.3,0.1-0.4
			c0.5-1.7,0.9-3.4,1.3-5.1c0.1-0.5,0.2-0.9,0.3-1.4s0.2-1,0.3-1.5l0.1-0.2c0.1-0.4,0.2-0.7,0.3-1.1c0.2-1,0.4-1.9,0.6-2.9
			c0.7-3.5,1.3-7.1,1.8-10.8c0.4-2.9,0.7-5.8,0.9-8.8c0.1-1.4,0.2-2.8,0.3-4.2c0.1-1.4,0.1-2.8,0.1-4.3
			C876.7,263.6,876.3,256.4,875.4,249.1z"/>
		<path class="st8" d="M579.6,314.8H566c-1.4,0-2.5-1.1-2.5-2.5l0,0c0-1.4,1.1-2.5,2.5-2.5h13.6c1.4,0,2.5,1.1,2.5,2.5l0,0
			C582.1,313.7,581,314.8,579.6,314.8z"/>
		<path class="st2" d="M875.4,249.1c0,0-342.5-1-342.6-0.4c-0.6,2.4-1,4.5-1.3,6.2c-1.7,10.9-2.2,23.5-2,34.9c0,3,0.1,5.9,0.2,8.7
			h223.5l0,0h120.3c0.7-3.5,1.3-7.1,1.8-10.8c0.4-2.9,0.7-5.8,0.9-8.8c0.1-1.4,0.2-2.8,0.3-4.2c0.1-1.4,0.1-2.8,0.1-4.3
			C876.7,263.6,876.3,256.4,875.4,249.1z"/>
		<path class="st8" d="M535,324.8h-5.8c-1.3,0-2.3-1-2.3-2.3v-16.3c0-1.3,1-2.3,2.3-2.3h5.8c1.3,0,2.3,1,2.3,2.3v16.3
			C537.3,323.7,536.3,324.8,535,324.8z"/>
		<path class="st5" d="M875.4,249.1c-0.3-2-0.6-4.1-1-6.1c0-0.2-0.1-0.4-0.1-0.6c-0.4-2.1-0.8-4.3-1.4-6.4c-0.3-1.4-0.7-2.7-1-4.1
			c-0.2-0.8-0.4-1.5-0.7-2.3c0-0.1-0.1-0.3-0.1-0.4c-0.3-0.9-0.6-1.8-0.8-2.7c-0.3-0.9-0.6-1.9-1-2.8c-0.2-0.5-0.3-1-0.5-1.5
			c-0.1-0.3-0.2-0.6-0.3-0.9c-1.9-5-4.2-10.1-6.8-15.1c-0.4-0.7-0.8-1.4-1.2-2.1c-0.1-0.3-0.3-0.5-0.4-0.8c-0.2-0.3-0.3-0.6-0.5-0.9
			c-1.2-2.1-2.5-4.1-3.8-6.2c-1-1.6-2.1-3.1-3.2-4.6c-0.5-0.7-1-1.4-1.6-2.2c-0.3-0.4-0.7-0.9-1-1.3c-0.9-1.2-1.8-2.3-2.8-3.5
			s-2.1-2.5-3.2-3.8c-0.5-0.5-0.9-1-1.4-1.5H658.4l0,0h-90.8c-0.5,0-0.9,0-1.4,0c-0.1,0-0.2,0-0.3,0c-0.2,0-0.3,0-0.5,0l0,0
			c-0.1,0-0.2,0-0.2,0l0,0c-0.1,0-0.2,0-0.3,0c-0.9,0.1-1.7,0.3-2.5,0.5c-0.1,0-0.2,0.1-0.4,0.1h-0.1c-0.2,0-0.3,0.1-0.5,0.1
			c-0.1,0-0.2,0.1-0.3,0.1c-0.2,0.1-0.3,0.1-0.5,0.2c-0.2,0.1-0.3,0.1-0.5,0.2c-0.1,0-0.2,0.1-0.3,0.1c-0.2,0.1-0.4,0.1-0.6,0.2
			c-0.2,0.1-0.3,0.1-0.5,0.2c-0.2,0.1-0.5,0.2-0.7,0.3s-0.3,0.1-0.5,0.2c-0.1,0.1-0.2,0.1-0.3,0.2c-0.2,0.1-0.4,0.2-0.5,0.3
			c-0.2,0.1-0.3,0.2-0.5,0.3l0,0c-0.2,0.1-0.3,0.2-0.5,0.3c0,0-0.1,0-0.1,0.1c-0.1,0.1-0.3,0.2-0.4,0.3c-0.1,0.1-0.3,0.2-0.4,0.3
			c-0.1,0.1-0.3,0.2-0.4,0.3c-0.1,0.1-0.2,0.1-0.3,0.2c-0.4,0.3-0.7,0.6-1.1,0.9c-0.1,0.1-0.1,0.1-0.2,0.2c-0.1,0.1-0.2,0.2-0.3,0.3
			s-0.2,0.2-0.3,0.3c-0.2,0.2-0.4,0.4-0.6,0.6c-0.1,0.1-0.2,0.2-0.3,0.3s-0.2,0.2-0.3,0.4c-0.1,0.1-0.2,0.2-0.2,0.3
			c-0.2,0.2-0.3,0.3-0.4,0.5c-0.1,0.1-0.1,0.2-0.2,0.3c-0.1,0.1-0.1,0.2-0.2,0.3c-0.1,0.2-0.3,0.4-0.4,0.6c-0.1,0.1-0.1,0.2-0.2,0.3
			c-0.1,0.1-0.1,0.2-0.2,0.3c-2,0.1-4.4,0.3-6.8,0.8c-9,1.9-14.7,6.8-16.5,14.4l-1.1-0.1c-1.5-0.1-2.8,0.9-3.1,2.3l-4.8,24.8
			c-0.3,1.6,0.9,3.2,2.5,3.4l6.9,0.7c1.6,0.1,3-1,3.1-2.6l2.4-25c0.1-1.5-0.9-2.8-2.4-3.1c1.6-6.8,5.5-11.9,13.7-13.6
			c1.8-0.4,3.6-0.5,5.1-0.5l0,0c-0.1,0.1-0.1,0.2-0.1,0.3c-0.1,0.2-0.2,0.3-0.2,0.5c-0.1,0.2-0.2,0.4-0.3,0.6
			c-0.1,0.2-0.2,0.3-0.2,0.5c0,0.1-0.1,0.2-0.1,0.3s-0.1,0.2-0.1,0.3c-0.1,0.2-0.2,0.4-0.2,0.6c-0.1,0.2-0.1,0.3-0.2,0.5
			c0,0.1-0.1,0.2-0.1,0.3s-0.1,0.2-0.1,0.3s0,0.1-0.1,0.2c0,0.1-0.1,0.2-0.1,0.3s-0.1,0.3-0.1,0.4c0,0.1-0.1,0.2-0.1,0.4
			c0,0.1-0.1,0.2-0.1,0.3c-0.3,1.1-0.6,2.2-0.9,3.4c-0.1,0.2-0.1,0.4-0.2,0.6c-0.3,1.2-0.7,2.5-1,3.8c-0.1,0.3-0.1,0.6-0.2,0.8
			c0,0.1,0,0.1-0.1,0.2c-0.1,0.2-0.1,0.4-0.2,0.6c-0.1,0.2-0.1,0.5-0.2,0.7c-0.1,0.4-0.2,0.8-0.3,1.2c0,0.1,0,0.1-0.1,0.2
			c-0.1,0.2-0.1,0.5-0.2,0.7c0,0.1-0.1,0.2-0.1,0.3c-0.1,0.4-0.2,0.7-0.3,1.1l0,0c-0.1,0.5-0.3,1-0.4,1.4h99.9v37.7h233.6V249.1z"/>
		<path class="st9" d="M875.4,249.1c-0.3-2-0.6-4.1-1-6.1c0-0.2-0.1-0.4-0.1-0.6c-0.4-2.1-0.8-4.3-1.4-6.4c-0.3-1.4-0.7-2.7-1-4.1
			c-0.2-0.8-0.4-1.5-0.7-2.3c0-0.1-0.1-0.3-0.1-0.4c-0.3-0.9-0.6-1.8-0.8-2.7c-0.3-0.9-0.6-1.9-1-2.8c-0.2-0.5-0.3-1-0.5-1.5
			c-0.1-0.3-0.2-0.6-0.3-0.9c-1.9-5-4.2-10.1-6.8-15.1c-0.4-0.7-0.8-1.4-1.2-2.1c-0.1-0.3-0.3-0.5-0.4-0.8c-0.2-0.3-0.3-0.6-0.5-0.9
			c-1.2-2.1-2.5-4.1-3.8-6.2H678.6H545.8c-0.3,1.1-0.6,2.2-0.9,3.4c-0.1,0.2-0.1,0.4-0.2,0.6c-0.3,1.2-0.7,2.5-1,3.8
			c-0.1,0.3-0.1,0.5-0.2,0.8c0,0.1-0.1,0.3-0.1,0.4c-0.1,0.4-0.2,0.8-0.3,1.2s-0.2,0.8-0.3,1.2c0,0.1,0,0.1-0.1,0.2
			c0,0.2-0.1,0.4-0.1,0.6c-0.1,0.2-0.1,0.3-0.1,0.5c-0.1,0.4-0.2,0.7-0.3,1.1c-0.1,0.5-0.3,1-0.4,1.4c-0.1,0.4-0.2,0.8-0.3,1.2
			c-0.3,1.2-0.6,2.3-0.9,3.5c-0.1,0.6-0.3,1.2-0.5,1.8c-0.1,0.6-0.3,1.2-0.5,1.8c-0.1,0.6-0.3,1.2-0.5,1.8c-0.1,0.5-0.3,1.1-0.4,1.6
			c-0.4,1.6-0.8,3.1-1.2,4.6c-0.1,0.6-0.3,1.2-0.4,1.7c-0.1,0.2-0.1,0.4-0.1,0.6c-0.1,0.6-0.3,1.2-0.4,1.7c0,0.1,0,0.2-0.1,0.3
			c-0.1,0.5-0.2,0.9-0.3,1.4c-0.1,0.2-0.1,0.4-0.1,0.6c-0.1,0.5-0.2,1-0.3,1.5c-0.1,0.3-0.1,0.6-0.2,0.9c-0.1,0.5-0.3,1-0.4,1.5v0.1
			c-0.1,0.3-0.1,0.6-0.2,0.8c0,0.1,0,0.1,0,0.1c-0.1,0.2-0.1,0.5-0.2,0.7c-0.1,0.3-0.1,0.5-0.2,0.8c-0.1,0.5-0.3,1-0.4,1.6
			c0,0.1-0.1,0.3-0.1,0.4c-0.1,0.6-0.3,1.3-0.4,1.9c0,0.2-0.1,0.5-0.1,0.7c0,0.1,0,0.1,0,0.2c-0.1,0.2-0.1,0.4-0.1,0.6
			c0,0.1,0,0.2-0.1,0.3c-0.1,0.3-0.1,0.6-0.2,0.9l0,0c0,0.2-0.1,0.4-0.1,0.6c-0.1,0.6-0.2,1.2-0.3,1.7h8.3h3.1h17.1h21.2h3.8
			l124.6,0.2c0-0.1-0.1-0.2-0.1-0.3h164.6V249.1z"/>
		<path class="st10" d="M588.8,208.8c0.2-2.4-1.8-4.5-4.2-4.5h-19.2c-12.4,0-20.9,9.8-22.4,22.4l-4.5,54.8c-0.2,1.9,1.3,3.5,3.2,3.5
			h39.4c1.7,0,3-1.3,3.1-3L588.8,208.8z"/>
		<path class="st11" d="M585,212.3l-3.3,48.2l-1.2,16.9c0,2.2-1.8,3.9-3.9,3.9h-30.7c-5.4,0-3.8-8-3.4-13.1l3.4-39.6
			c0-0.8,0-1.5,0.1-2.3c1-10.1,9-18,18.8-18h11.5C578.7,208.3,585,208.3,585,212.3z"/>
		<path class="st12" d="M657.3,334.2c0,2.6-0.8,5-2.3,6.9c-12.8-3.5-13.7-13.3-13.4-17.7c1.3-0.5,2.6-0.7,4.1-0.7
			C652.1,322.6,657.3,327.8,657.3,334.2z"/>
		<path class="st5" d="M868.7,317.3c-0.7,2.4-1.5,4.7-2.3,6.9c-0.2,0.6-0.5,1.3-0.7,1.9c-0.3,0.9-0.7,1.9-1,2.8l0,0
			c-0.3,0.7-0.6,1.4-0.8,2.1c-0.4,1.1-0.9,2.2-1.3,3.3c-0.6,1.6-1.3,3.1-1.9,4.5c-0.1,0.3-0.3,0.6-0.4,1c-0.3,0.6-0.6,1.3-0.8,1.9
			c-0.6,1.2-1.1,2.4-1.7,3.5c-0.5,1.1-1,2.1-1.5,3.1c-1.8,3.6-3.3,6.5-4,7.8c-8.6-0.8-15.7-6.6-18.5-14.4c-0.8-2.3-1.3-4.9-1.3-7.5
			c0-12.2,9.9-22,22-22C859.9,312.1,864.9,314.1,868.7,317.3z"/>
		<path class="st6" d="M864.8,328.9L864.8,328.9c-0.3,0.8-0.6,1.4-0.8,2.1c-0.4,1.1-0.9,2.2-1.3,3.3c-0.6,1.6-1.3,3.1-1.9,4.5
			c-0.1,0.3-0.3,0.6-0.4,1c-0.3,0.6-0.6,1.3-0.8,1.9c-0.6,1.2-1.1,2.4-1.7,3.5c-1,0.3-2.1,0.5-3.3,0.5c-3.5,0-6.6-1.6-8.8-4
			c-1.8-2-2.8-4.6-2.8-7.5c0-5,3.1-9.2,7.5-10.9c1.3-0.5,2.6-0.7,4.1-0.7C859,322.6,862.9,325.1,864.8,328.9z"/>
		<path class="st12" d="M864.8,328.9L864.8,328.9c-0.3,0.8-0.6,1.4-0.8,2.1c-0.4,1.1-0.9,2.2-1.3,3.3c-0.6,1.6-1.3,3.1-1.9,4.5
			c-0.1,0.3-0.3,0.6-0.4,1c-9.5-4.2-10.1-12.5-9.9-16.5c1.3-0.5,2.6-0.7,4.1-0.7C859,322.6,862.9,325.1,864.8,328.9z"/>
		<path class="st13" d="M581.7,260.5l-1.2,16.9c0,2.2-1.8,3.9-3.9,3.9h-30.7c-5.4,0-3.8-8-3.4-13.1l3.4-39.6c0-0.8,0-1.5,0.1-2.3
			C551.4,238.8,562.2,255.9,581.7,260.5z"/>
		<path class="st11" d="M691.4,242.4h-57.3c-2.4,0-4.4-2-4.4-4.4v-30.3c0-2.4,2-4.4,4.4-4.4h57.3c2.4,0,4.4,2,4.4,4.4V238
			C695.8,240.4,693.9,242.4,691.4,242.4z"/>
		<path class="st11" d="M619.4,242.4h-25.7c-1.7,0-3-1.4-3-3v-33c0-1.7,1.4-3,3-3h25.7c1.7,0,3,1.4,3,3v33
			C622.4,241,621.1,242.4,619.4,242.4z"/>
		<path class="st11" d="M765.6,242.4h-57.3c-2.4,0-4.4-2-4.4-4.4v-30.3c0-2.4,2-4.4,4.4-4.4h57.3c2.4,0,4.4,2,4.4,4.4V238
			C770,240.4,768.1,242.4,765.6,242.4z"/>
		<path class="st11" d="M838.8,242.4h-57.3c-2.4,0-4.4-2-4.4-4.4v-30.3c0-2.4,2-4.4,4.4-4.4h57.3c2.4,0,4.4,2,4.4,4.4V238
			C843.2,240.4,841.2,242.4,838.8,242.4z"/>
		<path class="st11" d="M872.9,236c0.5,2.1,1,4.3,1.4,6.4h-19.5c-2.4,0-4.4-2-4.4-4.4v-30.3c0-2.4,2-4.4,4.4-4.4h5.2
			c0.1,0.3,0.3,0.5,0.4,0.8c0.4,0.7,0.8,1.4,1.2,2.1c2.7,5,4.9,10,6.8,15.1c0.1,0.3,0.2,0.6,0.3,0.9c0.2,0.5,0.4,1,0.5,1.5
			c0.3,0.9,0.7,1.9,1,2.8c0.3,0.9,0.6,1.8,0.8,2.7c0,0.1,0.1,0.3,0.1,0.4c0.2,0.8,0.4,1.5,0.7,2.3
			C872.2,233.2,872.6,234.6,872.9,236z"/>
	</g>
	<g>
		<path class="st14" d="M221.6,230.2c-1.1-1.6-5.3-0.7-9.5,2s-6.7,6.3-5.6,7.9c1.1,1.6,5.3,0.7,9.5-2
			C220.1,235.4,222.6,231.9,221.6,230.2z"/>
		<g>
			<path class="st14" d="M199.8,290.5h0.8c0,0,0.3-14.4,1.6-20.2c2.3-10.8,8.5-19.3,8.5-19.4l-1.5-0.5c-0.1,0.1-1.2,1.9-2.9,5.2
				c-1.5,3.1-4,8.2-5,14.1C200.3,275.8,199.8,290.5,199.8,290.5z"/>
		</g>
		<path class="st15" d="M214.7,230.1c0,0-5.4-1.1-8,3.2c-2.6,4.4-2.7,12-4.4,14.5s-4.8,13-1.5,15.3c3.2,2.3,23.1-0.1,24.2-1.2
			c1.1-1.1-0.1-12.1-2-15.3C221,243.5,225.7,228.5,214.7,230.1z"/>
		<path class="st16" d="M223.8,283.2c-3.8-12.1,0.5-19.3,0.1-25.4c-0.3-4.5,0.6-4.7-0.2-5.9c-0.8-1.3-5.2-2.1-5.6-2.1
			c-0.3-0.2-0.4-1.6-0.4-3c0-1.7,0.1-3.4,0.1-3.4l-5.6-1.1l-0.3-0.1c0,3.9-1,6.5-1.8,7.1c-0.7,0.1-3.7,0.4-5.6,1.1
			c-0.7,0.3-1.2,0.6-1.4,0.9c-1.5,3-3.1,10.7-4.2,16.2c-0.6,3.1-1.1,5.4-1.3,5.9c-0.7,1.4-2.7,9.1-4.5,12.9l1.9,0.1
			c0,0,7.7-10.5,8.4-13.3c0.2-0.9,0.7-2.7,1.3-4.7c1.3,3.7,2,5.2,2,6.6c0,1.8-1.3,3.5-3.9,9.4C201.4,287.7,227.7,295.5,223.8,283.2z
			"/>
		<path class="st16" d="M209.4,340.7c0.4,1.5,0.8,2.9,1.2,4.2c0.1,0.3,0.2,0.6,0.3,0.8c0,0.1,0.1,0.3,0.1,0.4
			c0.1,0.3,0.2,0.5,0.3,0.8s0.2,0.6,0.3,0.9c0.1,0.2,0.2,0.4,0.2,0.7c1.2,3.3,2.3,5.4,2.3,5.4l2.5-0.2c0,0-0.9-4.4-1.1-10.7
			c0-0.2,0-0.5,0-0.7c0-0.5,0-1,0-1.5c0-0.2,0-0.4,0-0.6c0-5.4,0.7-11.8,2.9-17.9c1.7-5,3-9.6,3.9-13.8c2.9-13.6,2.3-22.5,2.3-22.5
			l-13.8,1.6l-0.6,0.1c-0.1,6.4-0.2,15-0.4,21.7c0,1.2,0,2.3-0.1,3.3c-0.1,4.3-0.2,7.3-0.2,7.3C206.7,325.8,207.7,333.9,209.4,340.7
			z"/>
		<path class="st17" d="M217.8,243.4c0,0-0.1,1.8-0.1,3.4c-3.1-0.1-4.8-3-5.5-4.6L217.8,243.4z"/>
		<path class="st16" d="M226.4,277.9c0,0-0.7,9.1-0.4,10.2c0.2,1.1-0.1,5-1.6,5.7C222.9,294.5,219.9,275.7,226.4,277.9z"/>
		<path class="st16" d="M218.8,245c0,0-7.5,0.1-7.5-4.5s-1-7.8,3.8-8c4.8-0.3,5.7,1.5,6.1,3C221.6,237,220.8,244.8,218.8,245z"/>
		<path class="st15" d="M218.5,232.3c0,0-2,5.4-5.2,6.3c-3.1,0.8-4.5,0-4.5,0s2.4-1.9,2.9-5.2C211.8,233.3,217,229.7,218.5,232.3z"
			/>
		<path class="st15" d="M218,232.8c0,0,1.5,1.2,1.9,2.4s0.5,3.6,1.2,3.5c0,0,1.5-3.7-0.2-5.8C219.2,230.7,218,232.8,218,232.8z"/>
		<path class="st18" d="M223.8,252.1c0,0,5.7,24.1,3.9,26.2c-1.7,2-6.2,2.4-6.9,1.9S223.8,252.1,223.8,252.1z"/>
		<path class="st15" d="M218.3,232.9c0,0-1.5,5.7-5.4,7.5c0,0,4-3.5,4.3-7.3C217.5,229.4,218.3,232.9,218.3,232.9z"/>
		<path class="st16" d="M201.5,339.5c0.8,8.5,4.3,14,4.3,14l1.2,1.1c0,0,1.1-6.2,1.9-13.3c0.7-6.8,1.8-13.9,2.9-16.1
			c1.7-3.3,3-9.9,3.9-17c1.5-11.7,2.1-24.4,2.1-24.4l-14-0.7c-1.4,2.4-2,6.3-2.2,10.7c-0.2,4.6,0.2,9.9,0.7,14.6
			c0.7,6.6,1.7,12,1.9,13.2l0,0c0,0.2,0,0.3-0.1,0.5C201.4,327.6,201,333.9,201.5,339.5z"/>
		<path class="st19" d="M222.6,337.8c-12.1,4.5-30.2-0.7-30.2-0.7s0.7-3.8,1.7-9.2c2.5-13.7,6.9-38.1,7.7-40.7
			c1.1-3.6,5.1-12,5.1-12c1.9,0.6,3.8,0.9,5.6,1.1c5.3,0.4,9.9-0.7,9.9-0.7s0.7,2.5,2.3,7.7C226.1,288.3,222.6,337.8,222.6,337.8z"
			/>
		<path class="st20" d="M224.5,261.4c-0.6,6-2.3,14-2.3,14c-0.9,0.5-1.8,0.8-2.8,1.1c-6.4,1.7-12.7-1.4-12.7-1.4s0-0.2,0-0.4
			c0-0.2,0-0.4-0.1-0.5c0-0.3-1.6-4-1.6-4s-0.1,0.3-0.2,0.8c-0.6,2.6-2.5,11.3-3.6,12.1c-0.7,0.5-2.8,0.5-4.9-0.1
			c-2.1-0.6-4.1-1.8-4.1-3.7c0-2.5,4.5-13.6,7.7-21.3l0,0c1.7-4.1,2.7-6.9,4-7.2c0,0,8.9,3.6,13.8,3.1c1.7-0.2,4.8-1.6,5.7-2
			l0.1,0.1c0,0,0,0,0.1,0.1c0,0,0,0.1,0.1,0.1c0.7,1.1,0.6,2.8,0.6,3.5C224.5,256.8,224.7,258.7,224.5,261.4z"/>
		<path class="st18" d="M205.1,270.2c0,0,1.5,3.6,1.6,4c0,0.2,0,0.4,0.1,0.5c0.7,0.6,1.6,1.1,2.5,1.3c2.6,0.8,3.7-4.2,3.5-6.6
			c-0.2-2.5-3.8-9.5-5-9.6C206.6,259.7,205.1,270.2,205.1,270.2z"/>
		<path class="st21" d="M204.9,271c0.1-0.5,0.2-0.8,0.2-0.8C205,270.5,204.9,270.7,204.9,271z"/>
		<g>
			<path class="st22" d="M215.5,277c4.7,0,6.6-1.3,6.7-1.4l0.3-2.2c0,0-6.3,3.8-16.1,0.2l0.2,1.7C210.4,276.7,213.1,277,215.5,277z"
				/>
		</g>
		<path class="st18" d="M192.3,279.3c0,1.9,2,3.1,4.1,3.7c-2.9-3.5,3.5-24.5,3.6-25C196.8,265.7,192.3,276.9,192.3,279.3z"/>
		<g>
			<path class="st14" d="M212.7,356h1.6c0.5-0.1,0.9-0.2,1.5-0.3c0.8-0.1,1.2,0.2,1.3,0.3l0,0h6.7c0.2-0.2,0-0.8-0.2-1.2
				c-0.1-0.3-0.3-0.5-0.6-0.6c-0.7-0.2-2.1-0.4-3.4-1.5c-0.7-0.6-3.5-2.4-3.5-2.4l0,0c-0.1,0-0.3,0.1-1.6,1.1
				c-0.6,0.5-1.7-0.8-1.7-0.8s-0.2,0.2-0.4,0.5c-0.1,0.3-0.2,0.6-0.1,1c0.1,0.6-0.2,1.7-0.5,2.5c-0.2,0.5-0.3,0.8-0.3,0.8
				S211.3,355.8,212.7,356z"/>
			<path class="st23" d="M212.3,351.1c0.4,0.3,1.2,0.8,1.7,0.9c0.7,0.1,2-1.7,2-1.7l0,0c-0.1,0-0.3,0.1-1.6,1.1
				c-0.6,0.5-1.7-0.8-1.7-0.8S212.5,350.8,212.3,351.1z"/>
			<path class="st23" d="M212.7,356h1.6c0.5-0.1,0.9-0.2,1.5-0.3c0.8-0.1,1.2,0.2,1.3,0.3l0,0h6.7c0.2-0.2,0-0.8-0.2-1.2
				c-0.2-0.2-0.3,0.8-0.4,0.9c-0.1,0.2-5.4,0.1-5.7-0.2c-0.3-0.2-1.2-0.6-2.5-0.3c-1.1,0.3-2.8-0.4-3.2-0.6
				c-0.2,0.5-0.3,0.8-0.3,0.8S211.3,355.8,212.7,356z"/>
		</g>
		<g>
			<path class="st14" d="M204.3,356h1.6c0.5-0.1,0.9-0.2,1.5-0.3c0.8-0.1,1.2,0.2,1.3,0.3l0,0h6.7c0.2-0.2,0-0.8-0.2-1.2
				c-0.1-0.3-0.3-0.5-0.6-0.6c-0.7-0.2-2.1-0.4-3.4-1.5c-0.7-0.6-3.5-2.4-3.5-2.4l0,0c-0.1,0-0.3,0.1-1.6,1.1
				c-0.6,0.5-1.7-0.8-1.7-0.8s-0.2,0.2-0.4,0.5c-0.1,0.3-0.2,0.6-0.1,1c0.1,0.6-0.2,1.7-0.5,2.5c-0.2,0.5-0.3,0.8-0.3,0.8
				S203,355.8,204.3,356z"/>
			<path class="st23" d="M204,351.1c0.4,0.3,1.2,0.8,1.7,0.9c0.7,0.1,2-1.7,2-1.7l0,0c-0.1,0-0.3,0.1-1.6,1.1
				c-0.6,0.5-1.7-0.8-1.7-0.8S204.1,350.8,204,351.1z"/>
			<path class="st23" d="M204.3,356h1.6c0.5-0.1,0.9-0.2,1.5-0.3c0.8-0.1,1.2,0.2,1.3,0.3l0,0h6.7c0.2-0.2,0-0.8-0.2-1.2
				c-0.2-0.2-0.3,0.8-0.4,0.9c-0.1,0.2-5.4,0.1-5.7-0.2c-0.3-0.2-1.2-0.6-2.5-0.3c-1.1,0.3-2.8-0.4-3.2-0.6
				c-0.2,0.5-0.3,0.8-0.3,0.8S203,355.8,204.3,356z"/>
		</g>
		<path class="st22" d="M194,327.8c2.5-13.7,6.9-38.1,7.7-40.7c1.1-3.6,5.1-12,5.1-12c1.9,0.6,3.8,0.9,5.6,1.1
			C212.6,279.2,214.1,308.7,194,327.8z"/>
		<g>
			<path class="st14" d="M212.8,290.6l-0.8-0.1c0,0,1.6-14.4,1.1-20.4c-0.9-11.1-5.8-20.4-5.9-20.5l1.5-0.3c0.1,0.1,1,2,2.2,5.6
				c1.1,3.3,2.8,8.7,3.1,14.8C214.3,275.8,212.8,290.5,212.8,290.6z"/>
		</g>
		<g>
			<path class="st24" d="M202.8,287.4c0,0,0.8-2,2.1-2.5l6.5,1.2c0,0-1.6,1.5-1.8,2.5L202.8,287.4z"/>
			<path class="st14" d="M211,298.5l-11.1-2.1c-0.5-0.1-0.9-0.6-0.8-1.1l1.4-7.3c0.1-0.5,0.6-0.9,1.1-0.8l11.1,2.1
				c0.5,0.1,0.9,0.6,0.8,1.1l-1.4,7.3C212,298.3,211.5,298.6,211,298.5z"/>
			<g>
				
					<rect x="200.9" y="284.2" transform="matrix(8.757941e-03 -1 1 8.757941e-03 -84.3307 488.5486)" class="st21" width="6.8" height="5.3"/>
				
					<rect x="200.6" y="284.2" transform="matrix(8.757763e-03 -1 1 8.757763e-03 -84.6281 488.2487)" class="st25" width="6.8" height="5.3"/>
			</g>
			<g>
				
					<rect x="202.3" y="286" transform="matrix(0.6078 -0.7941 0.7941 0.6078 -148.494 276.5599)" class="st26" width="6.8" height="5.3"/>
				
					<rect x="201.8" y="285.5" transform="matrix(0.6078 -0.7941 0.7941 0.6078 -148.3576 276.0153)" class="st27" width="6.8" height="5.3"/>
			</g>
			<path class="st28" d="M208.3,298l-10.6-2c-0.7-0.1-1.1-0.7-1-1.4l1.3-6.9c0.1-0.7,0.7-1.1,1.4-1l10.6,2c0.7,0.1,1.1,0.7,1,1.4
				l-1.3,6.9C209.5,297.7,208.9,298.1,208.3,298z"/>
		</g>
		<path class="st14" d="M205.7,236.1c0,0-3.4-6.7,1.3-9.4s8.2-1.6,10.8,1.6L205.7,236.1z"/>
		<path class="st28" d="M224.8,227.6c-1-1.6-4.4-1.3-8.5,0.4c-1.6,0.7-3.3,1.5-5,2.6c-2.1,1.3-4,2.8-5.5,4.2
			c-2.7,2.7-4.1,5.2-3.2,6.6c0.3,0.4,0.7,0.7,1.3,0.9c0.6-1.3,2.3-2.5,2.8-3.5c0.7-1.4,2.4-4,5.7-6c2.5-1.5,4.9-2.4,6.6-2.6
			c1-0.1,1.7,0.1,2,0.7c0.2,0.4,0.2,0.9,0,1.6c0.2,0.4,0.5,1,0.7,1.7C224.4,231.5,225.7,229,224.8,227.6z"/>
		<path class="st16" d="M193.1,286.5c0,0-1.8,1.9-2.1,2.1s-0.6,2.2-0.4,2.4c0.5,0.4,0.9-0.5,1.7-1s1.3-1.1,1.3-0.9s-1.1,1.1-0.9,1.2
			c0.1,0.2,1.6-0.8,1.9-1c0.3-0.2,0.4-2.7,0.4-2.7L193.1,286.5z"/>
	</g>
	<g>
		<path class="st14" d="M176.2,240.6h0.4l0.5-1.7c2.1-5.1,0.2-7-1.1-7.9c-1.6-1.1-3.3-1.3-3.3-1.3c-1-0.1-1.8-0.1-2.5,0.1l0,0
			c-7.8-1.6-8.5,12.7-7.3,13.6c1.2,0.9,3.9,0.8,3.9,0.8c-0.2-0.2-0.3-0.5-0.3-0.5c0.8,0.7,3.3,0.4,3.3,0.4c-1-1-1.3-2-1.3-2.9l2-0.1
			c0.5,1.3,1.3,2.6,2,3.2c1.3,1,4,0.8,4,0.8c-0.1-0.1-0.2-0.6-0.2-0.6c0.1,0.3,0.6,0.5,0.6,0.5c0.3,0,1-0.3,1-0.3
			S176.5,244.5,176.2,240.6z"/>
		<path class="st16" d="M179.4,277.5c6.1-1.5,12.8-11,12.8-11l-1.7-1.5c-1.8,2.1-9.1,5.7-9.1,5.7c0-1.9,0-3.7-0.1-5.2
			c-0.8-10.8-4.9-14.4-6-15.2c-0.2-0.1-0.3-0.2-0.3-0.2s0,0.1,0,0.2c0,0.3,0,1-0.1,1.9C174.6,258.8,174.3,278.8,179.4,277.5z"/>
		<path class="st16" d="M190.5,265c0-0.3,0.2-4,0.9-4.7s2.2-1.7,2.6-1.6c0.4,0.1,1.8,2.4,1.2,4.1c-0.7,1.6-3,3.7-3,3.7L190.5,265z"
			/>
		<g>
			<path class="st29" d="M189,265.5l4,0.2c0.1,0,0.2-0.1,0.3-0.2l0.3-7.6c0-0.1-0.1-0.2-0.2-0.3l-4-0.2c-0.1,0-0.2,0.1-0.3,0.2
				l-0.3,7.6C188.7,265.3,188.8,265.4,189,265.5z"/>
			<path class="st30" d="M190,265.5l3.6,0.2c0.2,0,0.4-0.2,0.4-0.4l0.3-7.3c0-0.2-0.2-0.4-0.4-0.4l-3.6-0.2c-0.2,0-0.4,0.2-0.4,0.4
				l-0.3,7.3C189.6,265.3,189.8,265.5,190,265.5z"/>
		</g>
		<path class="st16" d="M194.3,259c0,0-1.1-1.2-2.2-0.3c-1.1,0.9,0.1,2.9,1,3.5c0.9,0.5,1.3,0.8,1.3,0.8L194.3,259z"/>
		<path class="st31" d="M166.2,340.2c0.4,1.5,0.8,2.9,1.2,4.2c0.1,0.3,0.2,0.6,0.3,0.8c0,0.1,0.1,0.3,0.1,0.4
			c0.1,0.3,0.2,0.5,0.3,0.8s0.2,0.6,0.3,0.9c0.1,0.2,0.2,0.4,0.2,0.7c1.2,3.3,2.3,5.4,2.3,5.4l2.5-0.2c0,0-0.9-4.4-1.1-10.7
			c0-0.2,0-0.5,0-0.7c0-0.5,0-1,0-1.5c0-0.2,0-0.4,0-0.6c0-5.4,0.7-11.8,2.9-17.9c1.7-5,3-9.6,3.9-13.8c2.9-13.6,2.3-22.5,2.3-22.5
			l-13.8,1.6l-0.6,0.1c-0.1,6.3-0.2,15-0.4,21.7c0,1.2,0,2.3-0.1,3.3c-0.1,4.3-0.2,7.3-0.2,7.3C163.5,325.3,164.5,333.4,166.2,340.2
			z"/>
		<path class="st16" d="M159.6,284c2.6-5.9,3.9-7.5,3.9-9.4c0-1.5-0.7-3-2.1-6.9c-0.3-0.9-0.6-1.8-0.7-2.8c-1.1-7.4,3.2-15.5,5.9-16
			c0.7-0.2,2-2.9,2-7.2l0.3,0.1l5.6,1.1c0,0-0.1,1.8-0.1,3.4c0,1.4,0.1,2.8,0.4,3c0.4,0,0.8,0.1,0.8,0.1s4.8,3.3,5.1,7.9
			c0.4,6.1-3.9,13.2-0.1,25.4C184.4,295.1,158.1,287.3,159.6,284z"/>
		<path class="st17" d="M174.5,242.9c0,0-0.1,1.8-0.1,3.4c-3.1-0.1-4.8-3-5.5-4.6L174.5,242.9z"/>
		<path class="st16" d="M175.6,244.5c0,0-7.5,0.1-7.5-4.5s-1-7.8,3.8-8c4.8-0.3,5.7,1.5,6.1,3C178.4,236.6,177.5,244.4,175.6,244.5z
			"/>
		<path class="st14" d="M175.3,231.8c0,0-2,5.4-5.2,6.3c-3.1,0.8-4.5,0-4.5,0s2.4-1.9,2.9-5.2C168.5,232.8,173.8,229.3,175.3,231.8z
			"/>
		<path class="st14" d="M174.8,232.3c0,0,1.5,1.2,1.9,2.4s0.5,3.6,1.2,3.5c0,0,1.5-3.7-0.2-5.8C175.9,230.2,174.8,232.3,174.8,232.3
			z"/>
		<path class="st16" d="M149.9,290.2l2.2,0.7c0,0,7.4-12.2,8.1-15.4c0.2-1,0.8-3.1,1.4-5.4c1.3-4.8,3-10.7,3-10.7l0.6-2.4l1.9-8.1
			c0,0-3.6,0.4-5.7,1.2c-0.7,0.3-1.2,0.6-1.4,1c-1.5,3.4-3.1,12-4.2,18.1c-0.6,3.4-1.1,6.1-1.3,6.6
			C153.7,277.4,151.6,286,149.9,290.2z"/>
		<path class="st14" d="M175.1,232.5c0,0-1.5,5.7-5.4,7.5c0,0,4-3.5,4.3-7.3C174.3,229,175.1,232.5,175.1,232.5z"/>
		<path class="st32" d="M158.2,339.1c0.8,8.5,4.3,14,4.3,14l1.2,1.1c0,0,1.1-6.2,1.9-13.3c0.7-6.8,1.8-13.9,2.9-16.1
			c1.7-3.3,3-9.9,3.9-17c1.5-11.7,2.1-24.4,2.1-24.4l-14-0.7c-1.4,2.4-2,6.3-2.2,10.7c-0.2,4.6,0.2,9.9,0.7,14.6
			c0.7,6.6,1.7,12,1.9,13.2l0,0c0,0.2,0,0.3-0.1,0.5C158.1,327.1,157.7,333.5,158.2,339.1z"/>
		<path class="st33" d="M174.6,264.5c0.3,7.7,1.5,15.3,4.8,14.8c4.1-0.6,5.2-4.4,5.4-7.3c0.1-1.8-0.1-3.2-0.1-3.2s-2,0-2.3-0.3
			c-1.6-1.4-1.1-15.5-1.9-17c-0.8-1.5-5.8-2.4-5.8-2.4S174.3,256.9,174.6,264.5z"/>
		<path class="st33" d="M174.6,264.5c0.3,7.7,1.5,15.3,4.8,14.8c4.1-0.6,5.2-4.4,5.4-7.3c-1-0.1-2.8-0.3-3.5-1.4
			c-1-1.5-4.2-11.5-4.2-11.5S175.9,261.5,174.6,264.5z"/>
		<path class="st14" d="M166.2,340.2c0.4,1.5,0.8,2.9,1.2,4.2c0.1,0.3,0.2,0.6,0.3,0.8c0,0.1,0.1,0.3,0.1,0.4
			c0.1,0.3,0.2,0.5,0.3,0.8s0.2,0.6,0.3,0.9c0.1,0.2,0.2,0.4,0.2,0.7c1.2,3.3,2.3,5.4,2.3,5.4l2.5-0.2c0,0-0.9-4.4-1.1-10.7
			c0-0.2,0-0.5,0-0.7c0-0.5,0-1,0-1.5c0-0.2,0-0.4,0-0.6c0-5.4,0.7-11.8,2.9-17.9c1.7-5,3-9.6,3.9-13.8c-1.5,0.3-2.7,0-6.5-0.3
			c-0.4,0-2.3,2.3-4.1,5.4c-0.1,4.3-2.2,6.5-2.2,6.5C163.5,325.3,164.5,333.4,166.2,340.2z"/>
		<path class="st28" d="M158.2,339.1c0.8,8.5,4.3,14,4.3,14l1.2,1.1c0,0,1.1-6.2,1.9-13.3c0.7-6.8,1.8-13.9,2.9-16.1
			c1.7-3.3,3-9.9,3.9-17c-1.3,0.5-5.7,1.9-13.4,0.2c0.7,6.6,1.7,12,1.9,13.2l0,0c0,0.2,0,0.3-0.1,0.5
			C158.1,327.1,157.7,333.5,158.2,339.1z"/>
		<path class="st28" d="M155.6,297.8c0,0,2.9,0.9,7.3,1.5c5.3,0.7,12.8,1,19.5-1.5c0,0,0.6-9.9-1-15.1s-2.3-7.7-2.3-7.7
			s-6.3,1.6-12.8,0.4c-0.9-0.2-1.8-0.4-2.7-0.7c0,0-4,8.4-5.1,12C157.3,290.3,155.6,297.8,155.6,297.8z"/>
		<path class="st14" d="M155.6,297.8c0,0,2.9,0.9,7.3,1.5c7.9-4.5,4.1-23.4,4.1-23.4c-0.2-0.2-0.5-0.4-0.7-0.5
			c-0.9-0.2-1.8-0.4-2.7-0.7c0,0-4,8.4-5.1,12C157.3,290.3,155.6,297.8,155.6,297.8z"/>
		<path class="st34" d="M149.1,278.9c0,1.9,2,3.1,4.1,3.7c2,0.6,4.2,0.5,4.9,0.1c1.2-0.8,3.1-9.5,3.6-12.2c0.1-0.5,0.2-0.8,0.2-0.8
			s1.5,3.6,1.6,4c0,0.2,0,0.4,0.1,0.5c0,0.2,0,0.4,0,0.4s8.3,4.2,15.5,0.3c0,0,2.9-17,1.7-19.9c-0.6-1.5-3.9-4.4-5.3-5.7
			c-0.3-0.3-0.3-0.9-0.2-1.4c0.1-0.4-0.3-0.8-0.7-0.7c-0.9,0.2-2.4,0.2-4-0.4c-0.8-0.3-1.7-0.7-2.5-1.2c-0.2-0.2-0.5,0-0.6,0.3
			c-0.1,1-0.4,2.9-1,2.9c-0.8,0-6,0.6-6.4,1.3c-0.1,0.2-1.5,3.3-3.2,7.4l0,0C153.6,265.2,149.1,276.4,149.1,278.9z"/>
		<path class="st33" d="M161.8,269.7c0,0,1.5,3.6,1.6,4c0,0.2,0,0.4,0.1,0.5c0.7,0.6,1.6,1.1,2.5,1.3c2.6,0.8,3.7-4.2,3.5-6.6
			c-0.2-2.5-3.8-9.5-5-9.6C163.3,259.2,161.8,269.7,161.8,269.7z"/>
		<path class="st21" d="M161.7,270.5c0.1-0.5,0.2-0.8,0.2-0.8C161.8,270,161.7,270.2,161.7,270.5z"/>
		<g>
			<path class="st35" d="M172.2,276.9c4.7,0,6.6-1.6,6.8-1.7l0.3-2.2c0,0-6.3,3.8-16.1,0.2l0.2,1.7
				C167.2,276.2,169.8,276.9,172.2,276.9z"/>
		</g>
		<path class="st33" d="M149.1,278.9c0,1.9,2,3.1,4.1,3.7c-2.9-3.5,3.5-24.5,3.6-25C153.6,265.2,149.1,276.4,149.1,278.9z"/>
		<path class="st33" d="M166.4,248.8c0,0,3.9,2.5,6.9,1.9c0,0,0.7-0.5-0.3-0.9c-0.9-0.4-3.1-1.7-2.6-2.9c-0.8-0.3-1.7-0.7-2.5-1.2
			c-0.2-0.2-0.5,0-0.6,0.3C167.3,247,167,248.8,166.4,248.8z"/>
		<g>
			<path class="st14" d="M169.5,355.5h1.6c0.5-0.1,0.9-0.2,1.5-0.3c0.8-0.1,1.2,0.2,1.3,0.3l0,0h6.7c0.2-0.2,0-0.8-0.2-1.2
				c-0.1-0.3-0.3-0.5-0.6-0.6c-0.7-0.2-2.1-0.4-3.4-1.5c-0.7-0.6-3.5-2.4-3.5-2.4l0,0c-0.1,0-0.3,0.1-1.6,1.1
				c-0.6,0.5-1.7-0.8-1.7-0.8s-0.2,0.2-0.4,0.5c-0.1,0.3-0.2,0.6-0.1,1c0.1,0.6-0.2,1.7-0.5,2.5c-0.2,0.5-0.3,0.8-0.3,0.8
				S168.1,355.3,169.5,355.5z"/>
			<path class="st23" d="M169.1,350.7c0.4,0.3,1.2,0.8,1.7,0.9c0.7,0.1,2-1.7,2-1.7l0,0c-0.1,0-0.3,0.1-1.6,1.1
				c-0.6,0.5-1.7-0.8-1.7-0.8S169.2,350.3,169.1,350.7z"/>
			<path class="st23" d="M169.5,355.5h1.6c0.5-0.1,0.9-0.2,1.5-0.3c0.8-0.1,1.2,0.2,1.3,0.3l0,0h6.7c0.2-0.2,0-0.8-0.2-1.2
				c-0.2-0.2-0.3,0.8-0.4,0.9c-0.1,0.2-5.4,0.1-5.7-0.2c-0.3-0.2-1.2-0.6-2.5-0.3c-1.1,0.3-2.8-0.4-3.2-0.6
				c-0.2,0.5-0.3,0.8-0.3,0.8S168.1,355.3,169.5,355.5z"/>
		</g>
		<g>
			<path class="st14" d="M161.1,355.5h1.6c0.5-0.1,0.9-0.2,1.5-0.3c0.8-0.1,1.2,0.2,1.3,0.3l0,0h6.7c0.2-0.2,0-0.8-0.2-1.2
				c-0.1-0.3-0.3-0.5-0.6-0.6c-0.7-0.2-2.1-0.4-3.4-1.5c-0.7-0.6-3.5-2.4-3.5-2.4l0,0c-0.1,0-0.3,0.1-1.6,1.1
				c-0.6,0.5-1.7-0.8-1.7-0.8s-0.2,0.2-0.4,0.5c-0.1,0.3-0.2,0.6-0.1,1c0.1,0.6-0.2,1.7-0.5,2.5c-0.2,0.5-0.3,0.8-0.3,0.8
				S159.7,355.3,161.1,355.5z"/>
			<path class="st23" d="M160.7,350.7c0.4,0.3,1.2,0.8,1.7,0.9c0.7,0.1,2-1.7,2-1.7l0,0c-0.1,0-0.3,0.1-1.6,1.1
				c-0.6,0.5-1.7-0.8-1.7-0.8S160.9,350.3,160.7,350.7z"/>
			<path class="st23" d="M161.1,355.5h1.6c0.5-0.1,0.9-0.2,1.5-0.3c0.8-0.1,1.2,0.2,1.3,0.3l0,0h6.7c0.2-0.2,0-0.8-0.2-1.2
				c-0.2-0.2-0.3,0.8-0.4,0.9c-0.1,0.2-5.4,0.1-5.7-0.2c-0.3-0.2-1.2-0.6-2.5-0.3c-1.1,0.3-2.8-0.4-3.2-0.6
				c-0.2,0.5-0.3,0.8-0.3,0.8S159.7,355.3,161.1,355.5z"/>
		</g>
		<g>
			<path class="st14" d="M144.3,299.8c0.2-0.8,0.7-1.4,1.4-1.7c1.2-0.4,3.2-0.9,5.6-0.1c4.1,1.2,4.5,3.7,4.2,5.5s0.5,4.7,0.4,6.8
				c-0.1,2.1-0.7,7.2-3.7,7c-3-0.3-12.8-2.9-12.8-2.9s-1.7-3.2,1.8-7.9C143.3,303.7,144.1,301.1,144.3,299.8z"/>
			<g>
				<g>
					<path class="st14" d="M146.2,297.4l0.8,0.1c0,0,0.1-0.6,0.5-0.9c0.3-0.3,0.7-0.4,1.2-0.3s0.8,0.3,1,0.6
						c0.2,0.5,0.1,1.1,0.1,1.1l0.8,0.2c0,0,0.2-1.1-0.2-1.9c-0.3-0.6-0.8-0.9-1.5-1.1c-0.7-0.1-1.3,0.1-1.8,0.5
						C146.4,296.4,146.2,297.4,146.2,297.4z"/>
				</g>
				<g>
					<path class="st28" d="M137.5,313.8c0,0,9.8,2.6,12.8,2.9s3.6-4.9,3.7-7c0.1-2.1-0.7-4.9-0.4-6.8c0.1-0.3,0.1-0.7,0.1-1.1
						c-0.1-1.6-1-3.5-4.3-4.4c-2.4-0.7-4.4-0.3-5.6,0.1c-0.7,0.3-1.3,0.9-1.4,1.7c0,0.2-0.1,0.4-0.1,0.5c-0.3,1.4-1.2,3.7-3,6.1
						C135.8,310.6,137.5,313.8,137.5,313.8z"/>
					<path class="st14" d="M152.6,310.2c0,0-1.4,1.3-3.2,0.8s-2.7-2.2-2.7-2.2L152.6,310.2z"/>
					<path class="st14" d="M145.5,308.6c0,0-1.4,1.3-3.2,0.9c-1.8-0.5-2.7-2.2-2.7-2.2L145.5,308.6z"/>
					<path class="st14" d="M142.3,299.3c0,0.2-0.1,0.4-0.1,0.5c0.8,1.6,2.3,3.7,4.8,4.1c4.3,0.8,6.7-2.1,6.7-2.1
						c-0.1-1.6-1-3.5-4.3-4.4c-2.4-0.7-4.4-0.3-5.6,0.1C143,297.9,142.5,298.5,142.3,299.3z"/>
					<path class="st30" d="M146.9,304.9L146.9,304.9c0.3,0.1,0.5-0.1,0.6-0.4l0.1-0.4c0.1-0.3-0.1-0.5-0.4-0.6l0,0
						c-0.3-0.1-0.5,0.1-0.6,0.4l-0.1,0.4C146.5,304.6,146.7,304.8,146.9,304.9z"/>
				</g>
			</g>
		</g>
		<path class="st16" d="M150,289.9c0,0-0.7,1.6-1.4,2s-1.4,1.5-1.5,2.4c-0.3,1.6,0.9,2.6,1.8,2.6c0.9,0,1.7-1.2,2.3-4.1
			c0-0.2,0.9-1.8,0.9-1.8L150,289.9z"/>
	</g>
	<g>
		<g>
			<path class="st14" d="M282.8,356.2l0.6-59.6c0,0,0.5-4.3,4.2-4.3c4,0,4.2,4.3,4.2,4.3s-0.1,0.4-0.5,0.4s-0.5-0.4-0.5-0.4
				s-0.2-3.3-3.3-3.3c-2.9,0-3.3,3.3-3.3,3.3v59.6H282.8z"/>
			<path class="st14" d="M284.9,356.2h-2.5l0.2-2.6c0,0,0-0.4,0.5-0.4s1.4-0.1,1.5,0.2C284.6,353.7,284.9,356.2,284.9,356.2z"/>
		</g>
		<path class="st16" d="M287.6,289.2l0.2,0.9c0,0,4.2,0,5.2,4.5c0,0,0.3,1.9-1.1,1.5s-1.1-1.4-3.1-1.9c-1.9-0.5-3.2-0.9-3.5-2.3
			l-0.3-1.6L287.6,289.2z"/>
		<path class="st34" d="M272.7,252.3c0,0,1.1,4.4,2.1,8.4c0.4,1.6,0.7,3.2,1,4.3c0.3,1.2,0.4,2,0.4,2.1c-0.8,1.4,0.7,9.6,1.9,12.6
			c0.1,0.3,0.3,0.6,0.4,0.9c1.7,3.3,6.2,9.8,6.2,9.8s1.3,0.1,2.1-0.2c0.7-0.3,1.2-1.1,1.2-1.1c-0.4-0.6-2-8.3-4.1-12.6
			c-0.9-1.8-2.2-18.8-3.9-21.1C278.4,253.6,272.7,252.3,272.7,252.3z"/>
		<path class="st33" d="M276.2,267.1c-0.8,1.4,0.7,9.6,1.9,12.6c0.1,0.3,0.3,0.6,0.4,0.9c1.6-7.1-1.1-17.2-1.1-17.2
			c-0.7,0.3-1.2,0.8-1.6,1.6C276.1,266.2,276.2,267,276.2,267.1z"/>
		<path class="st36" d="M264.5,349.6c0,0-0.4,6.5,0.8,6.5c0.2,0,6.2,0,6.2,0h7.8c0,0-0.1-1.9-2.4-2.3c-2.2-0.4-6-2-7.4-4.9
			C268.1,345.8,264.5,349.6,264.5,349.6z"/>
		<path class="st37" d="M252.8,349.6c0,0-0.4,6.5,0.8,6.5c0.2,0,6.2,0,6.2,0h7.8c0,0-0.1-1.9-2.4-2.3c-2.2-0.4-6-2-7.4-4.9
			C256.4,345.8,252.8,349.6,252.8,349.6z"/>
		<path class="st28" d="M264.1,334.1c-0.2,2.7-0.6,6.2-0.4,9.4c0.2,4.4,0.3,8.2,0.3,8.2c2.9,1,8.3-0.2,8.3-0.2s1.9-11.2,3.5-20.1
			c0.7-4,1.3-7.5,1.5-9.1c0.7-5.3-0.7-33.4-0.7-33.4s-7.9-5.1-11.2-2.5c-3.3,2.6-5.3,5.2,0,33.7C265.7,322.3,264.6,328,264.1,334.1z
			"/>
		<path class="st14" d="M264.1,334.1c-0.2,2.7-0.5,7.1-0.4,10.3c2.7-2.9,8.2-9,12-13c0.7-4,1.3-7.5,1.5-9.1
			c0.7-5.3-0.7-33.4-0.7-33.4s-7.9-5.1-11.2-2.5c-3.3,2.6-5.3,5.2,0,33.7C265.7,322.3,264.6,328,264.1,334.1z"/>
		<path class="st28" d="M269.4,289.4c0,0-0.7,28.1-1.8,33.3c-1.1,5.2-6.9,29.1-6.9,29.1s-5.4,0.5-8.3-0.7c0,0,0.2-11.1,1.1-17.5
			c0.9-6.1,2.5-11.6,2.3-13.8c-3-28.9-0.8-31.3,2.6-33.6C261.9,283.8,269.4,289.4,269.4,289.4z"/>
		<path class="st16" d="M258.7,291.9c0,0,1.9,3.8-1.7,6.6c0,0-1.6,1.1-1.8-0.3s0-0.9-0.3-2.9c-0.4-2,0.1-4,1.2-4.8L258.7,291.9z"/>
		<path class="st16" d="M274.5,245.9c0,0-2.2,3.3-1.7,6.4l-3.2,7.7l-5.8-8.8c0,0,3.1-3.3,4.2-7.9L274.5,245.9z"/>
		<path class="st16" d="M275.4,248.7c0,0-7.9,0.3-8-4.4s-2.3-7.9,3.6-8.3c4.9-0.3,6.5,1.7,6.9,3.3
			C278.4,240.8,278.4,248.5,275.4,248.7z"/>
		<path class="st34" d="M256.1,290.8c1.7,0.2,4,0.4,6.9,0.5c0.6,0,1.2,0.1,1.8,0.1c8.6,0.5,12-0.9,12-0.9s0.2-0.2,0.2-1.2
			c-0.4-5.2-1.5-6.7-1.3-7.7c0.3-2.2,5.7-20.2,5.7-20.2s0.1-5.7-6.2-8.4c-0.7-0.3-1.4-0.5-2.2-0.7c-0.3,0.7-1,2-3,1.7
			c-2.9-0.3-4.9-2-5.8-2.9c-0.2,0-0.2,0-0.2,0c-0.2,0.6-0.4,1.2-0.5,1.9c-0.5,2.2-0.8,4.6-2.2,6.4c-1.4,1.7-2.5,3.5-3.5,5.1
			c-0.8,1.4-1.5,2.8-2.1,4.1C249.8,281,254.1,290.6,256.1,290.8z"/>
		<path class="st33" d="M256.1,290.8c1.7,0.2,4,0.4,6.9,0.5c0.8-13.9-4.8-27.3-4.8-27.3c-0.2,0.1-0.4,0.3-0.6,0.5
			c-1,1-1.7,2.4-2.1,4.1C253.7,274.9,255.1,285.2,256.1,290.8z"/>
		<path class="st28" d="M278,244.2c0,0,1.5,6.1-1.1,7s-9.5,0.2-9.5-7.3c0,0,3.6,2.2,5.4,2.1c1.7-0.1,2.9-1.1,4.5-0.3
			C277.2,245.7,277.8,245.6,278,244.2z"/>
		<path class="st34" d="M263.8,251.1c0,0-5.5,0.1-8.4,3.9c-2.2,2.9-4.6,18.5-4.6,20.9s2.5,15.3,3.9,16.7c0,0,0.9,0.2,2.1,0
			c1.3-0.2,2.1-1,2.1-1s-0.7-14.4-0.7-15.8c0-2,6.1-14,6.1-14S267.4,256.2,263.8,251.1z"/>
		<path class="st28" d="M267.8,237.5c0.1-0.5,0.7-0.7,0.7-0.7c4.4-1.9,7.7,0.2,7.7,0.2c-2.7-3.7-9.3-2.9-10.7,0.4
			c-2.3,5.4,1.9,6.5,1.9,6.5s4.1-1.7,1.7-3.9c-0.8-0.7-1.2-1.4-1.3-1.9l0,0l0,0C267.8,237.8,267.8,237.6,267.8,237.5z"/>
	</g>
	<g>
		<polygon class="st16" points="94.3,341.2 93.3,345.2 92.1,350.6 88.1,350.6 87.8,345.5 87.6,341.5 		"/>
		<path class="st33" d="M107,252.9c0,0,3.2-3.4,5.2-0.7c2.1,2.7,4.3,4.4,7.5,6.5c3.2,2-2.8,18-6.7,17.7
			C109,276,92.9,263.4,107,252.9z"/>
		<path class="st22" d="M91.2,251.3c0.8-0.6,8.1-3.1,15.1-0.6c7.1,2.5-5.5,9.3-5.5,9.3l-4.1,0.2L91.2,251.3z"/>
		<path class="st16" d="M95.8,246.7c0,0-0.1,4.4-0.7,6.3l-4.4,9.5l16.6-4l-4-5.5c0,0-1.2-5.8-0.6-8
			C103.5,242.9,95.8,246.7,95.8,246.7z"/>
		<path class="st38" d="M95.8,247.3c0,0,1.3,3.2,3.8,3.1c2.5-0.1,3-2.9,3-2.9L95.8,247.3z"/>
		<path class="st39" d="M94.3,244.7c0,0-0.8-4-1.4-5.2s-1-6.6,5.2-6.9c0,0,2.4,0.3,3.7-0.5c0,0,0,0.8-0.3,1.1c0,0,2.1-0.5,3.8,1.3
			c1.7,1.9-1.1,8.4-1,9.9L94.3,244.7z"/>
		<path class="st16" d="M99.3,249.1c-1.8,0-5.1-2.4-5.1-5.4v-4.6c0-1.1,0.8-2,1.7-2h6.8c0.9,0,1.7,0.9,1.7,2v4.4
			C104.4,246.6,101.4,249.2,99.3,249.1z"/>
		<path class="st39" d="M94.2,241.6c0,0,0-2.8,2.2-3.2s7.1,1.4,7.8-0.7c0.7-2-9.5-2-10-0.7C93.7,238.3,94.2,241.6,94.2,241.6z"/>
		<path class="st28" d="M112,288.7l-9.7,0.6c-0.1-0.1-0.1-0.1-0.2,0l-2.9,0.2L87,288.7c0,0-3.1,14-1.9,32.7c0.4,6,1,13.9,1.1,19.6h9
			c1.1-7.1,2.6-14.3,3.3-17.4c0.3-1.4,0.6-2.7,0.9-4.1c0.2,1.5,0.4,2.8,0.4,3.6c0,1.2,0.4,3.2,0.9,5.6c0.7,3.4,1.7,7.5,2.3,11.5h9.2
			c0.1-5.6,1.3-13.1,1.4-18.8C113.8,306.2,112,288.7,112,288.7z"/>
		<path class="st14" d="M85.8,295.9c0,0,3.5,4.2,13,3.6s14-2.3,14-2.3L85.8,295.9z"/>
		<path class="st19" d="M112.7,297.3c-3.1,0.4-24.1,1.5-26.9-1.4s4.6-42,4.6-42s0.8-0.2,2.2-0.5c0.7-0.1,1.6-0.3,2.6-0.4
			c0,0.3,0.3,4.9,4.1,6.8c0,0,4.6-1.8,4.2-6.8c0-0.1,0-0.1,0-0.2c0.6,0.1,1.2,0.2,1.9,0.3c1.3,0.2,2.5,0.5,3.8,0.9
			C109,254.1,115.8,296.9,112.7,297.3z"/>
		<path class="st19" d="M85.9,277.1c-0.1,0.2,0.7,1.4,1.9,2.9c2.4,3.2,6.3,7.8,6.3,7.8c-0.1,1.6-0.3,2.6-0.3,2.6
			c-5.3-2.5-9-4.9-11.4-6.8c-3.4-2.7-4.3-4.4-4.3-4.4c5.4-22.9,12.3-25.2,12.3-25.2l2.3,13.8C92.8,267.7,86.3,276.6,85.9,277.1z"/>
		<path class="st25" d="M105.2,253.2l-1.4,4.2l-1.9,2.7l-2.7,1.4l-2.5-1.4l-4.2-6.7c0.7-0.1,1.6-0.3,2.6-0.4c0,0.3,0.3,4.9,4.1,6.8
			c0,0,4.6-1.8,4.2-6.8c0-0.1,0-0.1,0-0.2C104,253,104.6,253,105.2,253.2z"/>
		<path class="st16" d="M94.2,287.8v0.1c0,0.3,0,0.6-0.1,0.8c-0.1,0.2-0.3,0.4-0.4,0.5c-0.2,0.2-0.5,0.5-0.8,0.6
			c-0.1-0.1-0.3-0.1-0.4-0.2c-4.6-2.3-7.8-4.4-10-6.1c1.4-0.4,3.3-1.4,5.3-3.6C90.3,283.2,94.2,287.8,94.2,287.8z"/>
		<path class="st19" d="M120.7,278.3c0,0-0.9,1.8-4.3,4.5c-2.4,1.9-5.9,4.4-11.2,7c0,0-0.2-1-0.3-2.6c0,0,3.8-4.7,6.2-7.9
			c1.2-1.6,2-2.8,1.8-3c-0.3-0.4-4.4-5.7-6.2-8.1c-0.5-0.7-0.9-1.1-0.9-1.1l2.3-13.5C108.2,253.6,114.9,255.6,120.7,278.3z"/>
		<path class="st16" d="M116.5,282.8c-2.2,1.8-5.3,4-9.9,6.3c-0.1,0.1-0.2,0.1-0.3,0.2c-0.6-0.7-0.9-1.5-1.2-2.3
			c0.1-0.1,0.2-0.2,0.3-0.4c1.1-1.4,3.8-4.8,5.7-7.3C113.1,281.5,115.1,282.4,116.5,282.8z"/>
		<path class="st16" d="M103.4,252.9c-3.1-0.3-5.9-0.2-8.2,0.1l0,0C95.2,253,102.8,248.3,103.4,252.9z"/>
		<g>
			<g>
				<polygon class="st40" points="95.7,266.2 95.6,266.2 95.5,258.9 95.9,258.9 				"/>
			</g>
			<path class="st25" d="M95.6,266c-0.1,0.2-0.5,0.9-0.2,1c0.2,0.1,0.6,0.1,0.7,0C96.1,266.9,95.8,265.6,95.6,266z"/>
		</g>
		<g>
			<g>
				<polygon class="st40" points="102.9,266.2 102.8,266.2 102.7,258.9 103.1,258.9 				"/>
			</g>
			<path class="st25" d="M102.8,266c-0.1,0.2-0.5,0.9-0.2,1c0.2,0.1,0.6,0.1,0.7,0C103.3,266.9,103,265.6,102.8,266z"/>
		</g>
		<path class="st22" d="M96.8,260.1l-6.5-6.2c0,0-1.5-1,0.8-2.6C93.5,249.8,96.8,260.1,96.8,260.1z"/>
		<path class="st22" d="M102,260.1l6.5-6.2c0,0,1.5-1-0.8-2.6C105.3,249.8,102,260.1,102,260.1z"/>
		<g>
			<path class="st22" d="M110.1,289.9c-1.3,0.1-2.3-0.2-3.1-0.9c-0.1-0.1-0.3-0.3-0.4-0.4c-0.6-0.7-1-1.7-1.2-2.5
				c-0.2-0.9-0.3-1.6-0.3-1.6v-0.2H94.7v0.2c0,1.1-0.1,2.1-0.5,2.9c-0.2,0.4-0.5,0.8-0.8,1.1c-0.3,0.3-0.6,0.5-0.9,0.7
				c-1.4,0.8-3,0.8-3,0.8h-0.2v4.4h21V290L110.1,289.9z"/>
		</g>
		<path class="st22" d="M112.9,276.4c0,0-5.8-7.6-1.2-9.9c1.8-0.9,4.4,9.6,3,10.6s-3.7,2.2-3.7,2.2L112.9,276.4z"/>
		<path class="st22" d="M86.6,274.6c0,0,2-9.6,0.2-8.6s-4.4,9.6-3,10.6s3.7,2.2,3.7,2.2L86.6,274.6z"/>
		<g>
			<path class="st33" d="M112.1,276.3c-2.7-3.3-3.7-8.7-3.5-14.2c0.1-4.2,0.7-7.9,0.7-8l2.2,1.7c0,0-1.3,2.3-1.3,6.3
				c-0.1,3.7-0.3,6.5,1.8,12.9L112.1,276.3z"/>
		</g>
		<path class="st14" d="M91.9,343h-4.7c-0.4,0-1.1-0.6-1.1-1.4c0,0,0-2.1-0.1-2.5c-0.6-1.6,0.3-1.7,1.2-1.7h8.5
			c0.9,0-0.5,2.7-0.5,3.6l0.3,1.1C95.6,343,92.8,343,91.9,343z"/>
		<path class="st14" d="M92.1,350.6L92.1,350.6l1.3-5.4c-2.9,1-4.9,0.4-5.5,0.2l0.2,5.2l0,0c0,0-1,2.6-1.3,3.3
			c-0.3,0.7-0.3,2.6-0.3,2.6h6.4c0,0,0-1.9,0-2.7C92.8,353,92.1,350.6,92.1,350.6z"/>
		<polygon class="st16" points="104.1,341.2 105,345.2 106.3,350.6 110.3,350.6 110.5,345.5 110.7,341.5 		"/>
		<path class="st14" d="M106.4,343h4.7c0.4,0,1.1-0.6,1.1-1.4c0,0,0-2.1,0.1-2.5c0.6-1.6-0.3-1.7-1.2-1.7h-8.5
			c-0.9,0,0.5,2.7,0.5,3.6l-0.3,1.1C102.8,343,105.6,343,106.4,343z"/>
		<path class="st14" d="M111.6,353.9c-0.3-0.7-1.3-3.3-1.3-3.3l0,0l0.2-5.2c-0.6,0.2-2.6,0.8-5.5-0.2l1.3,5.4l0,0
			c0,0-0.7,2.4-0.8,3.2c0,0.8,0,2.7,0,2.7h6.4C111.9,356.5,111.9,354.6,111.6,353.9z"/>
	</g>
	<g>
		<path class="st2" d="M73.5,190.1l-0.1,5.3l-2.5,160.1c0,0.4-0.3,0.7-0.7,0.7H70c-0.8,0-1.4-0.6-1.4-1.4l-3.5-154.5l-0.2-10.2
			L73.5,190.1L73.5,190.1z"/>
		<path class="st3" d="M73.5,190.1l-0.1,5.3c-2.3,0.7-5.6,2.2-8.3,4.9l-0.2-10.2H73.5z"/>
	</g>
	<g>
		<path class="st2" d="M311.9,190.1l-0.1,5.3l-2.5,160.1c0,0.4-0.3,0.7-0.7,0.7h-0.2c-0.8,0-1.4-0.6-1.4-1.4l-3.5-154.5l-0.2-10.2
			L311.9,190.1L311.9,190.1z"/>
		<path class="st3" d="M311.9,190.1l-0.1,5.3c-2.3,0.7-5.6,2.2-8.3,4.9l-0.2-10.2H311.9z"/>
	</g>
	<g>
		<path class="st2" d="M323.4,170.1V189c0,0.4-0.1,0.7-0.3,1c-0.4,0.6-1.1,1.1-2,1.1H57.2c-1.2,0-2.2-0.9-2.2-2.1v-18.9
			c0-1.1,1-2.1,2.2-2.1h263.9C322.4,168,323.4,168.9,323.4,170.1z"/>
		<path class="st3" d="M323.4,170.1V189c0,0.4-0.1,0.7-0.3,1c-0.8,0.4-1.6,0.7-2.4,1.1H209.2c-27.3-6.7-54.5-15.7-74.5-23h186.4
			C322.4,168,323.4,168.9,323.4,170.1z"/>
	</g>
	<path class="st1" d="M63.4,345.2c0,0-7.4-11.3-12-9.2C46.8,338.2,63.4,345.2,63.4,345.2z"/>
	<path class="st1" d="M65.5,343c0,0-0.4-8.2-2.8-7.9C60.2,335.5,65.5,343,65.5,343z"/>
</g>
<circle class="st41" cx="8.9" cy="62.1" r="103.9"/>
<circle class="st42" cx="89.1" cy="-4.1" r="64.2"/>
<circle class="st43" cx="726.6" cy="104.7" r="62.8"/>
<circle class="st44" cx="623.4" cy="47.5" r="36.3"/>
<rect x="25.8" y="355.5" class="st2" width="325.2" height="8.2"/>
</svg>
