<?xml version="1.0" encoding="utf-8"?>
<!-- Generator: Adobe Illustrator 25.3.1, SVG Export Plug-In . SVG Version: 6.00 Build 0)  -->
<svg version="1.1" id="Capa_1" xmlns="http://www.w3.org/2000/svg" xmlns:xlink="http://www.w3.org/1999/xlink" x="0px" y="0px"
	 viewBox="0 0 218.6 219.3" style="enable-background:new 0 0 218.6 219.3;" xml:space="preserve">
<style type="text/css">
	.st0{fill:#FF871A;}
	.st1{fill:#FF9E1D;}
</style>
<g>
	<path class="st0" d="M66.6,22.9l25.2,44.6c4,6.9,7.1,11.2,9,13.1c2.1,1.9,5,3.1,8.8,3.1c3.6,0,6.4-0.9,8.5-2.8
		c1.9-1.9,5-6.4,9-13.3l25.2-44.6c4-7.4,8.1-12.3,12.3-15c4.3-2.6,10.7-3.8,19.2-3.8h5.5c8.5,0,13.5,1.2,15,3.8
		c1.4,2.6,0,7.4-4.3,14.5l-28.5,47.9c-7.1,11.6-12.1,19.2-15.2,23.3c-3.1,3.8-16.6,6.9-20.6,9c4.3,1.9,17.8,5,20.9,9.3
		c3.3,4.5,5,6.9,5,7.1l9.7,15.7l36.6,61.7c4.5,7.1,6.2,11.9,4.7,14.5c-1.4,2.6-6.4,3.8-15,3.8h-5.9c-8.5,0-15-1.2-19.2-3.8
		c-4.3-2.6-8.5-7.6-12.8-15l-32.8-57.7c-4-7.4-6.9-11.9-9-13.8c-1.9-1.9-4.7-2.8-8.5-2.8c-3.8,0-6.6,0.9-8.8,3.1
		c-2.1,1.9-5.2,6.4-9,13.5L59,196.4c-4.3,7.4-8.5,12.3-12.8,15s-10.7,3.8-19.2,3.8H21c-8.5,0-13.5-1.2-15-3.8
		c-1.4-2.6,0.2-7.4,4.7-14.5l37-61.7c8.5-13.3,13.5-20.9,15-23c3.1-4,16.6-7.1,20.6-9.3c-4.3-2.4-17.8-5.2-20.9-9
		c-3.1-3.8-7.8-11.6-14.7-23.3L19.3,22.7c-4.5-7.1-6.2-11.9-4.7-14.5s6.4-3.8,15-3.8H35c8.5,0,15,1.2,19.2,3.8
		C58.5,10.6,62.8,15.5,66.6,22.9z"/>
	<path class="st1" d="M135.4,102.9c4.3,1.9,17.8,5,20.9,9.3c3.3,4.5,5,6.9,5,7.1l9.7,15.7l36.6,61.7c4.5,7.1,6.2,11.9,4.7,14.5
		c-1.4,2.6-6.4,3.8-15,3.8h-5.9c-8.5,0-15-1.2-19.2-3.8c-4.3-2.6-8.5-7.6-12.8-15l-32.8-57.7c-4-7.4-6.9-11.9-9-13.8
		c-1.9-1.9-4.7-2.8-8.5-2.8s-6.6,0.9-8.8,3.1c-2.1,1.9-5.2,6.4-9,13.5L59,196.4c-4.3,7.4-8.5,12.3-12.8,15s-10.7,3.8-19.2,3.8H21
		c-8.5,0-13.5-1.2-15-3.8c-1.4-2.6,0.2-7.4,4.7-14.5l37-61.7c8.5-13.3,13.5-20.9,15-23c3.1-4,16.6-7.1,20.6-9.3
		C79.2,100.5,139.2,100.5,135.4,102.9z"/>
</g>
</svg>
