<?xml version="1.0" encoding="utf-8"?>
<!-- Generator: Adobe Illustrator 25.4.0, SVG Export Plug-In . SVG Version: 6.00 Build 0)  -->
<svg version="1.1" id="Capa_1" xmlns="http://www.w3.org/2000/svg" xmlns:xlink="http://www.w3.org/1999/xlink" x="0px" y="0px"
	 viewBox="0 0 546.3 125.8" style="enable-background:new 0 0 546.3 125.8;" xml:space="preserve">
<style type="text/css">
	.st0{fill:#F04754;}
	.st1{fill:#6B6B6B;}
	.st2{fill:#F9D837;}
</style>
<path class="st0" d="M92.4,86.9c-1.7,0.9-3.2,1.6-4.6,2c-1.4,0.5-3.2,0.8-5.3,1c-2.1,0.2-4.7,0.4-7.8,0.6c-3.1,0.2-7.1,0.4-12,0.7
	l0.9,14.6c0.3,4.2-2.9,7.7-7,8h0c-4.2,0.3-7.7-2.9-8-7l-4-62.7c-0.2-2.5,1.7-4.6,4.2-4.8l29.3-1.9c3.6-0.2,7.1,0.2,10.3,1.4
	c3.3,1.2,6.2,2.9,8.7,5.1c2.5,2.2,4.6,4.9,6.2,8.1c1.6,3.2,2.5,6.5,2.7,10.2c0.3,5.3-0.8,10.2-3.3,14.6
	C100.2,81.2,96.8,84.6,92.4,86.9z M61.7,76.4l18.8-1.2c3.2-0.2,5.8-1.5,7.9-3.9c2.1-2.4,3-5.5,2.7-9.2c-0.1-1.6-0.5-3.1-1.2-4.5
	c-0.7-1.4-1.6-2.7-2.7-3.7c-1.1-1.1-2.4-1.9-3.8-2.5c-1.4-0.6-2.9-0.8-4.5-0.7l-18.8,1.2L61.7,76l0,0.1L61.7,76.4z M105.6,110.7
	l-6.4,0.4c-2.1,0.1-4.1-0.7-5.5-2.2L73,88.6l12-8.9l23.7,23.5C111.2,106,109.4,110.5,105.6,110.7z"/>
<path class="st0" d="M127.8,78.3c0.2,2.6,0.8,4.9,1.8,7.1c1,2.2,2.4,4.1,4.1,5.6c1.7,1.6,3.6,2.8,5.8,3.6c0.6,0.3,1.3,0.5,1.9,0.6
	c2.9,0.7,5,3.1,5.2,6.1v0c0.3,4.3-3.6,7.8-7.8,7c-1.5-0.3-3-0.7-4.4-1.2c-4-1.4-7.6-3.5-10.7-6.2c-3.1-2.7-5.7-6-7.6-9.8
	c-1.9-3.8-3-8-3.3-12.4L110.3,43c-0.3-4.2,2.9-7.8,7.1-8.1h0c4.2-0.3,7.8,2.9,8.1,7.1l2.3,35.8l0,0.2L127.8,78.3z M166.7,31.7
	c4.2-0.3,7.8,2.9,8.1,7.1l2.3,35.8c0.2,3.8-0.1,7.4-1.2,10.9c-1,3.5-2.5,6.6-4.5,9.5c-2,2.9-4.4,5.4-7.3,7.5c-1.4,1-2.8,1.9-4.3,2.7
	c-2.8,1.5-6.2,0.5-7.9-2.1l-0.6-1c-1.8-2.9-0.9-6.8,2-8.6l0.1,0c1.9-1.2,3.5-2.6,4.8-4.4c1.4-1.8,2.4-3.8,3-6c0.7-2.2,0.9-4.5,0.8-7
	c0-0.1,0-0.1-0.1-0.2c0,0-0.1-0.1-0.1-0.2c0-0.2,0-0.2,0-0.1c0,0.1,0.1,0,0-0.4c0-0.4-0.1-1.2-0.2-2.6c-0.1-1.3-0.2-3.6-0.4-6.7
	c-0.2-3.2-0.5-7.5-0.8-12.9l-0.9-13.3C159.3,35.6,162.5,32,166.7,31.7L166.7,31.7z"/>
<path class="st0" d="M217.9,33.4l4,62.1c0.3,4.2-2.9,7.9-7.2,8.2h0c-4.2,0.3-7.9-2.9-8.2-7.2l-3.5-54l-15.5,1
	c-3.6,0.2-6.7-2.5-6.9-6.1v0c-0.2-3.6,2.5-6.7,6.1-6.9l25.9-1.7C215.3,28.6,217.7,30.7,217.9,33.4z M224.1,28l9.6-0.6
	c3.2-0.2,6,2.2,6.2,5.5v0c0.3,4-2.8,7.4-6.7,7.7l-4.4,0.3c-1,0.1-2-0.4-2.5-1.3l-4.3-7.4C221,30.3,222.1,28.2,224.1,28z"/>
<path class="st0" d="M283.9,85.9l-34.2,2.2l-3.2,9c-1,2.8-3.6,4.8-6.6,5h0c-5.3,0.3-9.2-4.8-7.6-9.8l20.7-61.4
	c1-2.9,3.6-4.9,6.6-5.1h0c5.3-0.3,9.3,4.8,7.6,9.8l-13.1,38.9l23.4-1.5l-9.8-20c-1.4-2.9-0.8-6.4,1.5-8.7v0
	c3.7-3.6,9.8-2.5,12.1,2.1l20.1,41.5c2.3,4.8-0.9,10.4-6.2,10.7h0c-3,0.2-5.8-1.4-7.2-4.1L283.9,85.9z"/>
<path class="st1" d="M362.7,53.7c2.8,1.8,5.2,4.2,7,7.2c1.8,3,2.9,6.3,3.1,9.9c0.2,3.1-0.2,6.1-1.2,8.9c-1,2.8-2.4,5.3-4.3,7.5
	c-1.9,2.2-4.2,4-6.8,5.3c-2.7,1.4-5.5,2.1-8.6,2.3l-13.4,0.9c-1.4,0.1-2.8-0.6-3.6-1.8l-3.1-5c-1.6-2.5,0.1-5.8,3.1-6l16.3-1.1
	c1-0.1,1.9-0.4,2.8-1c0.9-0.6,1.6-1.3,2.2-2.1c0.6-0.8,1-1.7,1.4-2.8c0.3-1,0.5-2,0.4-3c-0.1-1.1-0.3-2.1-0.8-3.1
	c-0.5-1-1.1-1.9-1.8-2.6c-0.8-0.7-1.6-1.3-2.5-1.8c-0.9-0.4-1.9-0.6-2.9-0.6l-26.8,1.7l1.5,22.5c0.3,4.1-2.9,7.7-7,8h0
	c-4.1,0.3-7.7-2.9-8-7l-4-62.1c-0.2-2.9,2-5.4,4.9-5.6l31.2-2c3.1-0.2,6,0.2,8.8,1.2c2.8,1,5.3,2.4,7.5,4.3c2.2,1.9,3.9,4.2,5.3,6.8
	c1.4,2.7,2.1,5.5,2.3,8.6c0.1,2.3,0,4.5-0.5,6.5C364.5,49.9,363.8,51.9,362.7,53.7z M343.6,50.3c1-0.1,1.9-0.4,2.8-0.9
	c0.9-0.5,1.6-1.2,2.3-2c0.7-0.8,1.2-1.7,1.5-2.8c0.3-1.1,0.5-2.2,0.4-3.3c-0.1-1.1-0.3-2.2-0.8-3.2c-0.5-1-1.1-1.9-1.8-2.6
	c-0.8-0.7-1.6-1.3-2.5-1.7c-0.9-0.4-1.9-0.6-2.9-0.5l-21.5,1.4l1.1,17L343.6,50.3z"/>
<path class="st1" d="M393.3,61.2c0.2,2.6,0.8,4.9,1.8,7.1c1,2.2,2.4,4.1,4.1,5.6c1.7,1.6,3.6,2.8,5.8,3.6c0.6,0.3,1.3,0.5,1.9,0.6
	c2.9,0.7,5,3.1,5.2,6.1v0c0.3,4.3-3.6,7.8-7.8,7c-1.5-0.3-3-0.7-4.4-1.2c-4-1.4-7.6-3.5-10.7-6.2c-3.1-2.7-5.7-6-7.6-9.8
	c-1.9-3.8-3-8-3.3-12.4l-2.3-35.8c-0.3-4.2,2.9-7.8,7.1-8.1l0,0c4.2-0.3,7.8,2.9,8.1,7.1l2.3,35.8l0,0.2L393.3,61.2z M432.3,14.6
	c4.2-0.3,7.8,2.9,8.1,7.1l2.3,35.8c0.2,3.8-0.1,7.4-1.2,10.9c-1,3.5-2.5,6.6-4.5,9.5c-2,2.9-4.4,5.4-7.3,7.5c-1.4,1-2.8,1.9-4.3,2.7
	c-2.8,1.5-6.2,0.5-7.9-2.1l-0.6-1c-1.8-2.9-0.9-6.8,2-8.6l0.1,0c1.9-1.2,3.5-2.6,4.8-4.4c1.4-1.8,2.4-3.8,3-6c0.7-2.2,0.9-4.5,0.8-7
	c0-0.1,0-0.1-0.1-0.2c0,0-0.1-0.1-0.1-0.2c0-0.2,0-0.2,0-0.1c0,0.1,0.1,0,0-0.4c0-0.4-0.1-1.2-0.2-2.6c-0.1-1.3-0.2-3.6-0.4-6.7
	c-0.2-3.2-0.5-7.5-0.8-12.9l-0.9-13.3C424.9,18.5,428.1,14.9,432.3,14.6L432.3,14.6z"/>
<path class="st1" d="M482.6,42.6c3.5,0.7,6.7,1.5,9.6,2.5c3,1,5.5,2.2,7.7,3.7c2.2,1.5,4,3.4,5.3,5.6c1.3,2.2,2.1,4.9,2.3,8l0,0.3
	c0.2,3.4-0.3,6.6-1.5,9.5c-1.2,2.9-3,5.5-5.3,7.7c-2.3,2.2-5.1,3.9-8.3,5.3c-3.2,1.3-6.8,2.1-10.7,2.4c-3.6,0.2-7.1,0-10.5-0.7
	c-3.4-0.7-6.5-1.6-9.2-2.9c-2.8-1.3-5.3-2.8-7.4-4.5c0,0,0,0-0.1-0.1c-3-2.4-2.8-7,0.3-9.2l2.9-2.1c2.1-1.5,5-1.5,7,0.1
	c0.4,0.3,0.7,0.6,1.1,0.8c1.4,1.1,2.9,2,4.5,2.7c1.5,0.7,3.2,1.2,5,1.6c1.8,0.3,3.8,0.4,5.9,0.3c1.4-0.1,2.7-0.3,4.1-0.7
	c1.4-0.4,2.6-0.9,3.7-1.6c1.1-0.7,2-1.6,2.6-2.6c0.6-1,0.9-2.2,0.8-3.7c-0.1-1-0.4-1.9-0.9-2.8c-0.6-0.9-1.5-1.7-2.7-2.6
	c-1.3-0.8-3-1.6-5.1-2.3c-2.1-0.7-4.8-1.3-7.9-1.9c-3.9-0.7-7.4-1.5-10.6-2.5c-3.1-1-5.8-2.2-8.1-3.8s-4-3.4-5.3-5.7
	c-1.3-2.3-2-5-2.2-8.2c-0.2-3.5,0.2-6.7,1.4-9.6c1.1-2.9,2.8-5.4,5-7.5c2.2-2.1,4.9-3.7,8-5c3.1-1.2,6.5-2,10.1-2.2
	c3.8-0.2,7.2,0,10.3,0.6c3.1,0.7,5.9,1.6,8.4,2.7c2.5,1.2,4.7,2.5,6.6,4.1c0,0,0,0,0.1,0c2.6,2.1,2.5,6.2-0.2,8.2l-3.5,2.6
	c-1.8,1.4-4.3,1.4-6.2,0c-2.1-1.5-4.2-2.6-6.1-3.3c-2.8-1-5.7-1.4-8.7-1.2c-1.9,0.1-3.4,0.5-4.7,1c-1.3,0.5-2.3,1.2-3.1,1.9
	c-0.8,0.7-1.4,1.5-1.8,2.4c-0.4,0.9-0.6,1.7-0.5,2.5c0.1,1.4,0.5,2.6,1.4,3.6c0.8,1,2,1.9,3.5,2.6c1.5,0.8,3.4,1.4,5.6,2
	C477.3,41.5,479.8,42,482.6,42.6z"/>
<path id="XMLID_555_" class="st2" d="M78.6,27.3c-5.9-3.8-12.6-5.1-19.5-5.6c-8.3-0.5-16.2,1.5-23.8,4.9c-7.5,3.4-12.3,9-14.7,16.8
	c-3.7,12.2-3.6,24.3,0.5,36.4c0.7,2,1.3,4,1.9,5.9c0,0.1-0.1,0.3-0.3,0.8c-3.9-2.4-7.7-4.7-11.5-7c-0.3,0.2-0.5,0.5-0.8,0.7
	c0.2,0.8,0,1.9,0.5,2.3c6.3,5.2,12.7,10.3,19.2,15.3c1.8,1.3,3.2,0.7,4.1-1.5c0.5-1.2,0.6-2.5,1.1-3.7c0.9-2.2,2-4.3,3-6.5
	c0.9-2,1.7-4,2.7-6.2c-3.3,0.1-4.1,0.8-9.6,8c-0.6-1-1.2-1.9-1.5-2.8c-4.4-10.5-7.2-21.2-5.5-32.7c2.1-15.1,6.2-20.7,22.8-26.1
	c9.4-3,18.7-1.8,27.9,0.8c1,0.3,2,0.7,3,1C78.4,27.9,78.5,27.6,78.6,27.3z"/>
<path class="st2" d="M531.2,65.3c-0.5,1.4-1,2.8-1.6,4.2l-1.6,4.2c-1.3,3-2.9,5.7-4.7,8.2c-1.8,2.5-3.7,4.9-5.8,7.2
	c-4.2,4.5-8.9,8.5-14.3,11.7c-2.7,1.6-5.6,3-8.6,4.1c-1.5,0.5-3.1,1-4.7,1.3c-1.6,0.4-3.3,0.6-5.1,0.5c-0.9,0-1.7-0.1-2.4-0.1
	c-0.8-0.1-1.5-0.1-2.3-0.2c-1.5-0.2-3.1-0.4-4.7-0.7c-3.2-0.7-6.4-2-9.1-3.9c-2.6-1.8-4.9-3.8-7.1-5.8c-2.2-2-4.4-3.9-6.7-5.8
	c-0.6-0.5-1.1-1-1.7-1.4c-0.5-0.4-1.1-0.8-1.6-1.2c-1.1-0.7-2.3-1.3-3.5-1.5c-1.2-0.3-2.4-0.3-3.7,0c-1.2,0.3-2.4,0.9-3.5,1.8
	c-2.2,1.7-3.9,4-5.4,6.5c-1.5,2.5-2.7,5.2-3.7,7.9l0,0c-0.1,0.2-0.3,0.3-0.5,0.2c-0.2-0.1-0.3-0.3-0.3-0.5c0.7-2.9,1.7-5.7,2.9-8.5
	c1.3-2.7,2.9-5.4,5.3-7.6c1.2-1.1,2.6-2,4.2-2.6c1.6-0.6,3.4-0.8,5.1-0.5c1.7,0.2,3.3,0.8,4.7,1.6c0.7,0.4,1.4,0.8,2.1,1.2
	c0.7,0.4,1.2,0.9,1.9,1.3c2.4,1.7,4.8,3.5,7.2,5.3c2.4,1.8,4.7,3.5,7,4.9c2.3,1.4,4.7,2.2,7.3,2.6c1.3,0.2,2.7,0.3,4.1,0.4
	c0.7,0,1.4,0,2.1,0.1c0.7,0,1.4,0,2,0c2.4-0.1,4.9-0.9,7.3-2.1c2.4-1.1,4.8-2.6,7-4.2c4.5-3.2,8.8-6.9,12.9-10.7
	c2.1-1.9,4.1-3.9,6-6c1.9-2.1,3.7-4.2,5.2-6.4c0.4-0.6,0.8-1.2,1.2-1.8l1.2-1.9c0.8-1.2,1.7-2.5,2.5-3.7"/>
<path id="XMLID_00000007390985406225651170000016098663399410256769_" class="st2" d="M526.1,76.8c0.5-0.9,0.9-1.9,2.2-2.7
	c0.1,1.5,0.2,3,0.3,4.5c0.1,1.4,0.1,2.9,0.5,4.3c0.2,0.7,1.1,1.5,1.9,1.7c0.4,0.1,1.4-0.7,1.6-1.4c0.5-1.3,0.9-2.8,0.9-4.2
	c0.1-6.1,0.1-12.2-0.2-18.2c0-1.2-0.9-2.8-1.9-3.5c-0.7-0.4-2.6,0.2-3.3,1c-4.4,4.5-8.5,9.1-12.7,13.7c-0.3,0.3-0.1,0.9-0.2,1.6
	c3.9,0.9,5.4-2.9,8.3-4.1c0.1,0.4,0.4,0.9,0.3,1.1"/>
</svg>
